<svg xmlns="http://www.w3.org/2000/svg" xmlns:xlink="http://www.w3.org/1999/xlink" width="500" zoomAndPan="magnify" viewBox="0 0 375 374.999991" height="500" preserveAspectRatio="xMidYMid meet" version="1.0"><defs><g/><clipPath id="2adf1b58fa"><path d="M 0 118.324219 L 80 118.324219 L 80 236.074219 L 0 236.074219 Z M 0 118.324219 " clip-rule="nonzero"/></clipPath><clipPath id="a5ce6eca31"><path d="M 48 118.324219 L 128.25 118.324219 L 128.25 236.074219 L 48 236.074219 Z M 48 118.324219 " clip-rule="nonzero"/></clipPath></defs><g clip-path="url(#2adf1b58fa)"><path fill="#2957a3" d="M 72.054688 118.324219 L 79.988281 118.324219 L 79.988281 134.21875 L 72.054688 134.21875 L 72.054688 126.273438 L 8.105469 126.273438 L 8.105469 142.167969 L 40.332031 142.167969 L 40.332031 150.117188 L 0.175781 150.117188 L 0.175781 118.324219 Z M 79.988281 158.0625 L 79.988281 236.054688 L 72.054688 236.054688 L 72.054688 158.0625 Z M 79.988281 158.0625 " fill-opacity="1" fill-rule="evenodd"/></g><g clip-path="url(#a5ce6eca31)"><path fill="#00aeee" d="M 87.921875 118.324219 L 128.074219 118.324219 L 128.074219 150.117188 L 56.195312 150.117188 L 56.195312 236.054688 L 48.261719 236.054688 L 48.261719 142.167969 L 120.144531 142.167969 L 120.144531 126.273438 L 87.921875 126.273438 Z M 87.921875 118.324219 " fill-opacity="1" fill-rule="evenodd"/></g><g fill="#00aeee" fill-opacity="1"><g transform="translate(136.071, 176.917463)"><g><path d="M 26.71875 0 L 25.3125 -17.609375 L 25.140625 -17.609375 L 19.046875 -0.1875 L 15.015625 -0.1875 L 8.9375 -17.609375 L 8.75 -17.609375 L 7.34375 0 L 0.578125 0 L 3.234375 -29.71875 L 10.4375 -29.71875 L 17.03125 -12.5625 L 23.625 -29.71875 L 30.828125 -29.71875 L 33.5 0 Z M 26.71875 0 "/></g></g></g><g fill="#00aeee" fill-opacity="1"><g transform="translate(170.120447, 176.917463)"><g><path d="M 3.421875 -2.28125 C 1.691406 -4.164062 0.828125 -6.476562 0.828125 -9.21875 C 0.828125 -11.957031 1.691406 -14.273438 3.421875 -16.171875 C 5.148438 -18.066406 7.347656 -19.015625 10.015625 -19.015625 C 12.460938 -19.015625 14.476562 -18.25 16.0625 -16.71875 L 16.0625 -18.46875 L 22.4375 -18.46875 L 22.4375 0 L 16.140625 0 L 16.140625 -2.09375 L 16.0625 -2.09375 C 14.476562 -0.332031 12.460938 0.546875 10.015625 0.546875 C 7.347656 0.546875 5.148438 -0.394531 3.421875 -2.28125 Z M 8.828125 -12.34375 C 8.003906 -11.53125 7.59375 -10.488281 7.59375 -9.21875 C 7.59375 -7.945312 7.988281 -6.90625 8.78125 -6.09375 C 9.570312 -5.289062 10.617188 -4.890625 11.921875 -4.890625 C 13.171875 -4.890625 14.195312 -5.296875 15 -6.109375 C 15.800781 -6.929688 16.203125 -7.96875 16.203125 -9.21875 C 16.203125 -10.488281 15.785156 -11.53125 14.953125 -12.34375 C 14.128906 -13.164062 13.117188 -13.578125 11.921875 -13.578125 C 10.691406 -13.578125 9.660156 -13.164062 8.828125 -12.34375 Z M 8.828125 -12.34375 "/></g></g></g><g fill="#00aeee" fill-opacity="1"><g transform="translate(194.703718, 176.917463)"><g><path d="M 2.15625 0 L 2.15625 -18.46875 L 8.53125 -18.46875 L 8.53125 -16.53125 L 8.609375 -16.53125 C 10.265625 -18.1875 12.03125 -19.015625 13.90625 -19.015625 C 14.8125 -19.015625 15.710938 -18.894531 16.609375 -18.65625 C 17.515625 -18.414062 18.378906 -18.039062 19.203125 -17.53125 C 20.035156 -17.03125 20.707031 -16.316406 21.21875 -15.390625 C 21.738281 -14.472656 22 -13.398438 22 -12.171875 L 22 0 L 15.625 0 L 15.625 -10.4375 C 15.625 -11.40625 15.316406 -12.25 14.703125 -12.96875 C 14.097656 -13.6875 13.300781 -14.046875 12.3125 -14.046875 C 11.351562 -14.046875 10.484375 -13.671875 9.703125 -12.921875 C 8.921875 -12.179688 8.53125 -11.351562 8.53125 -10.4375 L 8.53125 0 Z M 2.15625 0 "/></g></g></g><g fill="#00aeee" fill-opacity="1"><g transform="translate(218.49513, 176.917463)"><g><path d="M 3.421875 -2.28125 C 1.691406 -4.164062 0.828125 -6.476562 0.828125 -9.21875 C 0.828125 -11.957031 1.691406 -14.273438 3.421875 -16.171875 C 5.148438 -18.066406 7.347656 -19.015625 10.015625 -19.015625 C 12.460938 -19.015625 14.476562 -18.25 16.0625 -16.71875 L 16.0625 -18.46875 L 22.4375 -18.46875 L 22.4375 0 L 16.140625 0 L 16.140625 -2.09375 L 16.0625 -2.09375 C 14.476562 -0.332031 12.460938 0.546875 10.015625 0.546875 C 7.347656 0.546875 5.148438 -0.394531 3.421875 -2.28125 Z M 8.828125 -12.34375 C 8.003906 -11.53125 7.59375 -10.488281 7.59375 -9.21875 C 7.59375 -7.945312 7.988281 -6.90625 8.78125 -6.09375 C 9.570312 -5.289062 10.617188 -4.890625 11.921875 -4.890625 C 13.171875 -4.890625 14.195312 -5.296875 15 -6.109375 C 15.800781 -6.929688 16.203125 -7.96875 16.203125 -9.21875 C 16.203125 -10.488281 15.785156 -11.53125 14.953125 -12.34375 C 14.128906 -13.164062 13.117188 -13.578125 11.921875 -13.578125 C 10.691406 -13.578125 9.660156 -13.164062 8.828125 -12.34375 Z M 8.828125 -12.34375 "/></g></g></g><g fill="#00aeee" fill-opacity="1"><g transform="translate(243.078402, 176.917463)"><g><path d="M 1.328125 4.53125 L 6.5625 1.984375 C 7.519531 3.566406 9.1875 4.359375 11.5625 4.359375 C 12.664062 4.359375 13.691406 4.003906 14.640625 3.296875 C 15.585938 2.585938 16.0625 1.5 16.0625 0.03125 L 16.0625 -1.328125 C 14.9375 -0.078125 12.921875 0.546875 10.015625 0.546875 C 7.347656 0.546875 5.148438 -0.394531 3.421875 -2.28125 C 1.691406 -4.164062 0.828125 -6.476562 0.828125 -9.21875 C 0.828125 -11.957031 1.691406 -14.273438 3.421875 -16.171875 C 5.148438 -18.066406 7.347656 -19.015625 10.015625 -19.015625 C 12.390625 -19.015625 14.367188 -18.28125 15.953125 -16.8125 L 16.0625 -16.8125 L 16.0625 -18.46875 L 22.4375 -18.46875 L 22.4375 0.5 C 22.4375 3.5 21.4375 5.816406 19.4375 7.453125 C 17.445312 9.085938 14.820312 9.90625 11.5625 9.90625 C 6.28125 9.90625 2.867188 8.113281 1.328125 4.53125 Z M 8.828125 -12.34375 C 8.003906 -11.53125 7.59375 -10.488281 7.59375 -9.21875 C 7.59375 -7.945312 7.988281 -6.90625 8.78125 -6.09375 C 9.570312 -5.289062 10.617188 -4.890625 11.921875 -4.890625 C 13.171875 -4.890625 14.195312 -5.296875 15 -6.109375 C 15.800781 -6.929688 16.203125 -7.96875 16.203125 -9.21875 C 16.203125 -10.488281 15.785156 -11.53125 14.953125 -12.34375 C 14.128906 -13.164062 13.117188 -13.578125 11.921875 -13.578125 C 10.691406 -13.578125 9.660156 -13.164062 8.828125 -12.34375 Z M 8.828125 -12.34375 "/></g></g></g><g fill="#00aeee" fill-opacity="1"><g transform="translate(267.661673, 176.917463)"><g><path d="M 20.859375 -8.359375 L 7.453125 -8.359375 C 7.453125 -7.054688 7.867188 -6.09375 8.703125 -5.46875 C 9.546875 -4.84375 10.460938 -4.53125 11.453125 -4.53125 C 12.484375 -4.53125 13.296875 -4.664062 13.890625 -4.9375 C 14.492188 -5.21875 15.179688 -5.769531 15.953125 -6.59375 L 20.5625 -4.28125 C 18.644531 -1.0625 15.453125 0.546875 10.984375 0.546875 C 8.203125 0.546875 5.8125 -0.40625 3.8125 -2.3125 C 1.820312 -4.226562 0.828125 -6.53125 0.828125 -9.21875 C 0.828125 -11.90625 1.820312 -14.207031 3.8125 -16.125 C 5.8125 -18.050781 8.203125 -19.015625 10.984375 -19.015625 C 13.910156 -19.015625 16.289062 -18.164062 18.125 -16.46875 C 19.96875 -14.78125 20.890625 -12.363281 20.890625 -9.21875 C 20.890625 -8.789062 20.878906 -8.503906 20.859375 -8.359375 Z M 7.640625 -11.890625 L 14.65625 -11.890625 C 14.507812 -12.847656 14.128906 -13.582031 13.515625 -14.09375 C 12.910156 -14.613281 12.128906 -14.875 11.171875 -14.875 C 10.109375 -14.875 9.265625 -14.597656 8.640625 -14.046875 C 8.015625 -13.492188 7.679688 -12.773438 7.640625 -11.890625 Z M 7.640625 -11.890625 "/></g></g></g><g fill="#00aeee" fill-opacity="1"><g transform="translate(289.365499, 176.917463)"><g><path d="M 2.15625 0 L 2.15625 -18.46875 L 8.53125 -18.46875 L 8.53125 -15.8125 L 8.609375 -15.8125 C 8.660156 -15.90625 8.738281 -16.023438 8.84375 -16.171875 C 8.945312 -16.316406 9.175781 -16.566406 9.53125 -16.921875 C 9.894531 -17.285156 10.28125 -17.609375 10.6875 -17.890625 C 11.101562 -18.179688 11.632812 -18.441406 12.28125 -18.671875 C 12.925781 -18.898438 13.585938 -19.015625 14.265625 -19.015625 C 14.960938 -19.015625 15.644531 -18.914062 16.3125 -18.71875 C 16.988281 -18.53125 17.484375 -18.34375 17.796875 -18.15625 L 18.296875 -17.859375 L 15.625 -12.46875 C 14.832031 -13.132812 13.726562 -13.46875 12.3125 -13.46875 C 11.550781 -13.46875 10.894531 -13.300781 10.34375 -12.96875 C 9.789062 -12.632812 9.398438 -12.222656 9.171875 -11.734375 C 8.941406 -11.253906 8.773438 -10.847656 8.671875 -10.515625 C 8.578125 -10.179688 8.53125 -9.914062 8.53125 -9.71875 L 8.53125 0 Z M 2.15625 0 "/></g></g></g><g fill="#00aeee" fill-opacity="1"><g transform="translate(307.290051, 176.917463)"><g><path d="M 10.1875 -19.015625 C 11.25 -19.015625 12.296875 -18.894531 13.328125 -18.65625 C 14.359375 -18.414062 15.125 -18.175781 15.625 -17.9375 L 16.390625 -17.578125 L 14.296875 -13.390625 C 12.859375 -14.160156 11.488281 -14.546875 10.1875 -14.546875 C 9.46875 -14.546875 8.957031 -14.46875 8.65625 -14.3125 C 8.363281 -14.15625 8.21875 -13.863281 8.21875 -13.4375 C 8.21875 -13.34375 8.226562 -13.242188 8.25 -13.140625 C 8.269531 -13.046875 8.316406 -12.957031 8.390625 -12.875 C 8.460938 -12.789062 8.53125 -12.71875 8.59375 -12.65625 C 8.65625 -12.59375 8.753906 -12.523438 8.890625 -12.453125 C 9.035156 -12.390625 9.148438 -12.335938 9.234375 -12.296875 C 9.316406 -12.265625 9.453125 -12.210938 9.640625 -12.140625 C 9.835938 -12.066406 9.984375 -12.007812 10.078125 -11.96875 C 10.179688 -11.9375 10.34375 -11.882812 10.5625 -11.8125 C 10.789062 -11.738281 10.96875 -11.691406 11.09375 -11.671875 C 11.832031 -11.453125 12.476562 -11.207031 13.03125 -10.9375 C 13.582031 -10.675781 14.164062 -10.316406 14.78125 -9.859375 C 15.394531 -9.410156 15.867188 -8.835938 16.203125 -8.140625 C 16.546875 -7.441406 16.71875 -6.648438 16.71875 -5.765625 C 16.71875 -1.554688 13.796875 0.546875 7.953125 0.546875 C 6.640625 0.546875 5.382812 0.34375 4.1875 -0.0625 C 3 -0.476562 2.144531 -0.890625 1.625 -1.296875 L 0.828125 -1.9375 L 3.421875 -6.296875 C 3.609375 -6.128906 3.859375 -5.929688 4.171875 -5.703125 C 4.484375 -5.472656 5.046875 -5.160156 5.859375 -4.765625 C 6.679688 -4.367188 7.394531 -4.171875 8 -4.171875 C 9.3125 -4.171875 9.96875 -4.617188 9.96875 -5.515625 C 9.96875 -5.921875 9.800781 -6.238281 9.46875 -6.46875 C 9.132812 -6.695312 8.566406 -6.953125 7.765625 -7.234375 C 6.960938 -7.523438 6.332031 -7.789062 5.875 -8.03125 C 4.71875 -8.632812 3.800781 -9.3125 3.125 -10.0625 C 2.457031 -10.820312 2.125 -11.828125 2.125 -13.078125 C 2.125 -14.953125 2.847656 -16.410156 4.296875 -17.453125 C 5.753906 -18.492188 7.71875 -19.015625 10.1875 -19.015625 Z M 10.1875 -19.015625 "/></g></g></g><g fill="#2957a3" fill-opacity="1"><g transform="translate(136.071, 228.71622)"><g><path d="M 19.484375 -6.640625 C 20.597656 -6.640625 21.679688 -6.804688 22.734375 -7.140625 C 23.796875 -7.484375 24.570312 -7.8125 25.0625 -8.125 L 25.8125 -8.625 L 28.9375 -2.375 C 28.832031 -2.300781 28.6875 -2.195312 28.5 -2.0625 C 28.320312 -1.9375 27.898438 -1.695312 27.234375 -1.34375 C 26.566406 -0.988281 25.851562 -0.679688 25.09375 -0.421875 C 24.34375 -0.160156 23.351562 0.0664062 22.125 0.265625 C 20.90625 0.472656 19.648438 0.578125 18.359375 0.578125 C 15.359375 0.578125 12.515625 -0.15625 9.828125 -1.625 C 7.148438 -3.09375 4.988281 -5.113281 3.34375 -7.6875 C 1.707031 -10.269531 0.890625 -13.054688 0.890625 -16.046875 C 0.890625 -18.304688 1.367188 -20.476562 2.328125 -22.5625 C 3.296875 -24.644531 4.582031 -26.425781 6.1875 -27.90625 C 7.789062 -29.394531 9.660156 -30.582031 11.796875 -31.46875 C 13.929688 -32.351562 16.117188 -32.796875 18.359375 -32.796875 C 20.429688 -32.796875 22.347656 -32.546875 24.109375 -32.046875 C 25.867188 -31.554688 27.113281 -31.066406 27.84375 -30.578125 L 28.9375 -29.828125 L 25.8125 -23.578125 C 25.625 -23.734375 25.347656 -23.921875 24.984375 -24.140625 C 24.617188 -24.367188 23.890625 -24.664062 22.796875 -25.03125 C 21.703125 -25.394531 20.597656 -25.578125 19.484375 -25.578125 C 17.710938 -25.578125 16.125 -25.289062 14.71875 -24.71875 C 13.3125 -24.144531 12.195312 -23.390625 11.375 -22.453125 C 10.5625 -21.515625 9.9375 -20.503906 9.5 -19.421875 C 9.070312 -18.347656 8.859375 -17.25 8.859375 -16.125 C 8.859375 -13.675781 9.773438 -11.484375 11.609375 -9.546875 C 13.453125 -7.609375 16.078125 -6.640625 19.484375 -6.640625 Z M 19.484375 -6.640625 "/></g></g></g><g fill="#2957a3" fill-opacity="1"><g transform="translate(165.454352, 228.71622)"><g><path d="M 4.234375 -2.375 C 2.003906 -4.351562 0.890625 -6.890625 0.890625 -9.984375 C 0.890625 -13.085938 2.046875 -15.632812 4.359375 -17.625 C 6.679688 -19.613281 9.550781 -20.609375 12.96875 -20.609375 C 16.320312 -20.609375 19.148438 -19.609375 21.453125 -17.609375 C 23.753906 -15.609375 24.90625 -13.070312 24.90625 -10 C 24.90625 -6.925781 23.78125 -4.394531 21.53125 -2.40625 C 19.28125 -0.414062 16.425781 0.578125 12.96875 0.578125 C 9.375 0.578125 6.460938 -0.40625 4.234375 -2.375 Z M 9.578125 -13.390625 C 8.679688 -12.503906 8.234375 -11.367188 8.234375 -9.984375 C 8.234375 -8.609375 8.660156 -7.484375 9.515625 -6.609375 C 10.378906 -5.742188 11.515625 -5.3125 12.921875 -5.3125 C 14.273438 -5.3125 15.390625 -5.753906 16.265625 -6.640625 C 17.140625 -7.523438 17.578125 -8.644531 17.578125 -10 C 17.578125 -11.375 17.125 -12.503906 16.21875 -13.390625 C 15.320312 -14.273438 14.222656 -14.71875 12.921875 -14.71875 C 11.597656 -14.71875 10.484375 -14.273438 9.578125 -13.390625 Z M 9.578125 -13.390625 "/></g></g></g><g fill="#2957a3" fill-opacity="1"><g transform="translate(191.24771, 228.71622)"><g><path d="M 2.34375 0 L 2.34375 -20.03125 L 9.25 -20.03125 L 9.25 -17.921875 L 9.328125 -17.921875 C 11.128906 -19.710938 13.046875 -20.609375 15.078125 -20.609375 C 16.066406 -20.609375 17.046875 -20.476562 18.015625 -20.21875 C 18.992188 -19.957031 19.929688 -19.554688 20.828125 -19.015625 C 21.722656 -18.472656 22.453125 -17.695312 23.015625 -16.6875 C 23.578125 -15.6875 23.859375 -14.523438 23.859375 -13.203125 L 23.859375 0 L 16.953125 0 L 16.953125 -11.328125 C 16.953125 -12.367188 16.617188 -13.28125 15.953125 -14.0625 C 15.285156 -14.84375 14.421875 -15.234375 13.359375 -15.234375 C 12.316406 -15.234375 11.367188 -14.828125 10.515625 -14.015625 C 9.671875 -13.210938 9.25 -12.316406 9.25 -11.328125 L 9.25 0 Z M 2.34375 0 "/></g></g></g><g fill="#2957a3" fill-opacity="1"><g transform="translate(217.041068, 228.71622)"><g><path d="M 11.046875 -20.609375 C 12.191406 -20.609375 13.320312 -20.476562 14.4375 -20.21875 C 15.5625 -19.957031 16.398438 -19.695312 16.953125 -19.4375 L 17.765625 -19.0625 L 15.5 -14.53125 C 13.9375 -15.363281 12.453125 -15.78125 11.046875 -15.78125 C 10.265625 -15.78125 9.710938 -15.691406 9.390625 -15.515625 C 9.066406 -15.347656 8.90625 -15.03125 8.90625 -14.5625 C 8.90625 -14.457031 8.914062 -14.351562 8.9375 -14.25 C 8.96875 -14.144531 9.019531 -14.046875 9.09375 -13.953125 C 9.175781 -13.867188 9.25 -13.789062 9.3125 -13.71875 C 9.375 -13.65625 9.484375 -13.582031 9.640625 -13.5 C 9.796875 -13.425781 9.921875 -13.367188 10.015625 -13.328125 C 10.109375 -13.296875 10.257812 -13.238281 10.46875 -13.15625 C 10.675781 -13.082031 10.832031 -13.023438 10.9375 -12.984375 C 11.039062 -12.941406 11.210938 -12.878906 11.453125 -12.796875 C 11.703125 -12.722656 11.894531 -12.675781 12.03125 -12.65625 C 12.832031 -12.414062 13.53125 -12.148438 14.125 -11.859375 C 14.726562 -11.578125 15.363281 -11.1875 16.03125 -10.6875 C 16.695312 -10.195312 17.210938 -9.570312 17.578125 -8.8125 C 17.941406 -8.0625 18.125 -7.207031 18.125 -6.25 C 18.125 -1.695312 14.957031 0.578125 8.625 0.578125 C 7.195312 0.578125 5.835938 0.359375 4.546875 -0.078125 C 3.253906 -0.515625 2.320312 -0.957031 1.75 -1.40625 L 0.890625 -2.109375 L 3.703125 -6.828125 C 3.910156 -6.648438 4.179688 -6.4375 4.515625 -6.1875 C 4.859375 -5.9375 5.472656 -5.597656 6.359375 -5.171875 C 7.242188 -4.742188 8.015625 -4.53125 8.671875 -4.53125 C 10.097656 -4.53125 10.8125 -5.007812 10.8125 -5.96875 C 10.8125 -6.414062 10.628906 -6.757812 10.265625 -7 C 9.898438 -7.25 9.28125 -7.53125 8.40625 -7.84375 C 7.539062 -8.15625 6.859375 -8.441406 6.359375 -8.703125 C 5.109375 -9.359375 4.117188 -10.09375 3.390625 -10.90625 C 2.660156 -11.726562 2.296875 -12.816406 2.296875 -14.171875 C 2.296875 -16.203125 3.082031 -17.78125 4.65625 -18.90625 C 6.238281 -20.039062 8.367188 -20.609375 11.046875 -20.609375 Z M 11.046875 -20.609375 "/></g></g></g><g fill="#2957a3" fill-opacity="1"><g transform="translate(236.239739, 228.71622)"><g><path d="M 8.859375 -20.03125 L 8.859375 -10.5 C 8.859375 -8.519531 9.15625 -7.113281 9.75 -6.28125 C 10.351562 -5.445312 11.367188 -5.03125 12.796875 -5.03125 C 14.234375 -5.03125 15.25 -5.445312 15.84375 -6.28125 C 16.445312 -7.113281 16.75 -8.519531 16.75 -10.5 L 16.75 -20.03125 L 23.65625 -20.03125 L 23.65625 -8.828125 C 23.65625 -5.492188 22.789062 -3.09375 21.0625 -1.625 C 19.332031 -0.15625 16.578125 0.578125 12.796875 0.578125 C 9.023438 0.578125 6.273438 -0.15625 4.546875 -1.625 C 2.816406 -3.09375 1.953125 -5.492188 1.953125 -8.828125 L 1.953125 -20.03125 Z M 8.859375 -20.03125 "/></g></g></g><g fill="#2957a3" fill-opacity="1"><g transform="translate(261.837975, 228.71622)"><g><path d="M 2.34375 0 L 2.34375 -33.578125 L 9.25 -33.578125 L 9.25 0 Z M 2.34375 0 "/></g></g></g><g fill="#2957a3" fill-opacity="1"><g transform="translate(273.427419, 228.71622)"><g><path d="M 3.515625 -20.03125 L 3.515625 -27.484375 L 10.421875 -27.484375 L 10.421875 -20.03125 L 14.640625 -20.03125 L 14.640625 -14.765625 L 10.421875 -14.765625 L 10.421875 -8.390625 C 10.421875 -6.546875 10.941406 -5.625 11.984375 -5.625 C 12.242188 -5.625 12.515625 -5.675781 12.796875 -5.78125 C 13.085938 -5.882812 13.3125 -5.988281 13.46875 -6.09375 L 13.703125 -6.25 L 15.421875 -0.65625 C 13.941406 0.164062 12.25 0.578125 10.34375 0.578125 C 9.039062 0.578125 7.921875 0.351562 6.984375 -0.09375 C 6.046875 -0.550781 5.335938 -1.160156 4.859375 -1.921875 C 4.378906 -2.691406 4.035156 -3.5 3.828125 -4.34375 C 3.617188 -5.195312 3.515625 -6.101562 3.515625 -7.0625 L 3.515625 -14.765625 L 0.625 -14.765625 L 0.625 -20.03125 Z M 3.515625 -20.03125 "/></g></g></g><g fill="#2957a3" fill-opacity="1"><g transform="translate(288.840997, 228.71622)"><g><path d="M 4.234375 -2.375 C 2.003906 -4.351562 0.890625 -6.890625 0.890625 -9.984375 C 0.890625 -13.085938 2.046875 -15.632812 4.359375 -17.625 C 6.679688 -19.613281 9.550781 -20.609375 12.96875 -20.609375 C 16.320312 -20.609375 19.148438 -19.609375 21.453125 -17.609375 C 23.753906 -15.609375 24.90625 -13.070312 24.90625 -10 C 24.90625 -6.925781 23.78125 -4.394531 21.53125 -2.40625 C 19.28125 -0.414062 16.425781 0.578125 12.96875 0.578125 C 9.375 0.578125 6.460938 -0.40625 4.234375 -2.375 Z M 9.578125 -13.390625 C 8.679688 -12.503906 8.234375 -11.367188 8.234375 -9.984375 C 8.234375 -8.609375 8.660156 -7.484375 9.515625 -6.609375 C 10.378906 -5.742188 11.515625 -5.3125 12.921875 -5.3125 C 14.273438 -5.3125 15.390625 -5.753906 16.265625 -6.640625 C 17.140625 -7.523438 17.578125 -8.644531 17.578125 -10 C 17.578125 -11.375 17.125 -12.503906 16.21875 -13.390625 C 15.320312 -14.273438 14.222656 -14.71875 12.921875 -14.71875 C 11.597656 -14.71875 10.484375 -14.273438 9.578125 -13.390625 Z M 9.578125 -13.390625 "/></g></g></g><g fill="#2957a3" fill-opacity="1"><g transform="translate(314.634355, 228.71622)"><g><path d="M 2.34375 0 L 2.34375 -20.03125 L 9.25 -20.03125 L 9.25 -17.140625 L 9.328125 -17.140625 C 9.378906 -17.242188 9.460938 -17.375 9.578125 -17.53125 C 9.703125 -17.6875 9.957031 -17.957031 10.34375 -18.34375 C 10.738281 -18.738281 11.15625 -19.09375 11.59375 -19.40625 C 12.039062 -19.71875 12.613281 -19.992188 13.3125 -20.234375 C 14.019531 -20.484375 14.738281 -20.609375 15.46875 -20.609375 C 16.21875 -20.609375 16.957031 -20.503906 17.6875 -20.296875 C 18.414062 -20.085938 18.953125 -19.878906 19.296875 -19.671875 L 19.828125 -19.375 L 16.953125 -13.515625 C 16.085938 -14.242188 14.890625 -14.609375 13.359375 -14.609375 C 12.523438 -14.609375 11.804688 -14.425781 11.203125 -14.0625 C 10.609375 -13.695312 10.1875 -13.253906 9.9375 -12.734375 C 9.6875 -12.210938 9.507812 -11.769531 9.40625 -11.40625 C 9.300781 -11.039062 9.25 -10.753906 9.25 -10.546875 L 9.25 0 Z M 2.34375 0 "/></g></g></g><g fill="#2957a3" fill-opacity="1"><g transform="translate(334.067169, 228.71622)"><g><path d="M 3 -31.1875 C 3.8125 -32 4.773438 -32.40625 5.890625 -32.40625 C 7.015625 -32.40625 7.976562 -32 8.78125 -31.1875 C 9.59375 -30.382812 10 -29.421875 10 -28.296875 C 10 -27.179688 9.59375 -26.21875 8.78125 -25.40625 C 7.976562 -24.601562 7.015625 -24.203125 5.890625 -24.203125 C 4.773438 -24.203125 3.8125 -24.601562 3 -25.40625 C 2.195312 -26.21875 1.796875 -27.179688 1.796875 -28.296875 C 1.796875 -29.421875 2.195312 -30.382812 3 -31.1875 Z M 2.34375 -20.03125 L 2.34375 0 L 9.25 0 L 9.25 -20.03125 Z M 2.34375 -20.03125 "/></g></g></g><g fill="#2957a3" fill-opacity="1"><g transform="translate(345.851734, 228.71622)"><g><path d="M 3.703125 -2.484375 C 1.828125 -4.523438 0.890625 -7.03125 0.890625 -10 C 0.890625 -12.96875 1.828125 -15.476562 3.703125 -17.53125 C 5.578125 -19.582031 7.960938 -20.609375 10.859375 -20.609375 C 13.515625 -20.609375 15.703125 -19.78125 17.421875 -18.125 L 17.421875 -20.03125 L 24.328125 -20.03125 L 24.328125 0 L 17.5 0 L 17.5 -2.265625 L 17.421875 -2.265625 C 15.703125 -0.367188 13.515625 0.578125 10.859375 0.578125 C 7.960938 0.578125 5.578125 -0.441406 3.703125 -2.484375 Z M 9.578125 -13.390625 C 8.679688 -12.503906 8.234375 -11.367188 8.234375 -9.984375 C 8.234375 -8.609375 8.660156 -7.484375 9.515625 -6.609375 C 10.378906 -5.742188 11.515625 -5.3125 12.921875 -5.3125 C 14.273438 -5.3125 15.390625 -5.753906 16.265625 -6.640625 C 17.140625 -7.523438 17.578125 -8.644531 17.578125 -10 C 17.578125 -11.375 17.125 -12.503906 16.21875 -13.390625 C 15.320312 -14.273438 14.222656 -14.71875 12.921875 -14.71875 C 11.597656 -14.71875 10.484375 -14.273438 9.578125 -13.390625 Z M 9.578125 -13.390625 "/></g></g></g></svg>