<svg xmlns="http://www.w3.org/2000/svg" xmlns:xlink="http://www.w3.org/1999/xlink" width="500" zoomAndPan="magnify" viewBox="0 0 375 374.999991" height="500" preserveAspectRatio="xMidYMid meet" version="1.0"><defs><g/><linearGradient x1="0" gradientTransform="matrix(0.75, 0, 0, 0.75, 0.0000045, 0)" y1="0" x2="499.999979" gradientUnits="userSpaceOnUse" y2="0" id="d04d0730cc"><stop stop-opacity="1" stop-color="rgb(0%, 0%, 0%)" offset="0"/><stop stop-opacity="1" stop-color="rgb(0.0808716%, 0.0778198%, 0.312805%)" offset="0.00390625"/><stop stop-opacity="1" stop-color="rgb(0.161743%, 0.15564%, 0.627136%)" offset="0.0078125"/><stop stop-opacity="1" stop-color="rgb(0.242615%, 0.233459%, 0.941467%)" offset="0.0117187"/><stop stop-opacity="1" stop-color="rgb(0.323486%, 0.311279%, 1.255798%)" offset="0.015625"/><stop stop-opacity="1" stop-color="rgb(0.404358%, 0.389099%, 1.568604%)" offset="0.0195312"/><stop stop-opacity="1" stop-color="rgb(0.486755%, 0.468445%, 1.882935%)" offset="0.0234375"/><stop stop-opacity="1" stop-color="rgb(0.567627%, 0.546265%, 2.197266%)" offset="0.0273438"/><stop stop-opacity="1" stop-color="rgb(0.648499%, 0.624084%, 2.511597%)" offset="0.03125"/><stop stop-opacity="1" stop-color="rgb(0.72937%, 0.701904%, 2.825928%)" offset="0.0351562"/><stop stop-opacity="1" stop-color="rgb(0.811768%, 0.779724%, 3.140259%)" offset="0.0390625"/><stop stop-opacity="1" stop-color="rgb(0.892639%, 0.857544%, 3.453064%)" offset="0.0429687"/><stop stop-opacity="1" stop-color="rgb(0.973511%, 0.93689%, 3.767395%)" offset="0.046875"/><stop stop-opacity="1" stop-color="rgb(1.054382%, 1.014709%, 4.081726%)" offset="0.0507812"/><stop stop-opacity="1" stop-color="rgb(1.13678%, 1.092529%, 4.396057%)" offset="0.0546875"/><stop stop-opacity="1" stop-color="rgb(1.217651%, 1.170349%, 4.710388%)" offset="0.0585938"/><stop stop-opacity="1" stop-color="rgb(1.298523%, 1.249695%, 5.024719%)" offset="0.0625"/><stop stop-opacity="1" stop-color="rgb(1.379395%, 1.327515%, 5.337524%)" offset="0.0664062"/><stop stop-opacity="1" stop-color="rgb(1.461792%, 1.405334%, 5.651855%)" offset="0.0703125"/><stop stop-opacity="1" stop-color="rgb(1.542664%, 1.483154%, 5.966187%)" offset="0.0742187"/><stop stop-opacity="1" stop-color="rgb(1.623535%, 1.560974%, 6.280518%)" offset="0.078125"/><stop stop-opacity="1" stop-color="rgb(1.704407%, 1.638794%, 6.594849%)" offset="0.0820312"/><stop stop-opacity="1" stop-color="rgb(1.786804%, 1.71814%, 6.90918%)" offset="0.0859375"/><stop stop-opacity="1" stop-color="rgb(1.867676%, 1.795959%, 7.221985%)" offset="0.0898437"/><stop stop-opacity="1" stop-color="rgb(1.948547%, 1.873779%, 7.536316%)" offset="0.09375"/><stop stop-opacity="1" stop-color="rgb(2.029419%, 1.951599%, 7.850647%)" offset="0.0976562"/><stop stop-opacity="1" stop-color="rgb(2.111816%, 2.030945%, 8.164978%)" offset="0.101562"/><stop stop-opacity="1" stop-color="rgb(2.192688%, 2.108765%, 8.479309%)" offset="0.105469"/><stop stop-opacity="1" stop-color="rgb(2.27356%, 2.186584%, 8.79364%)" offset="0.109375"/><stop stop-opacity="1" stop-color="rgb(2.354431%, 2.264404%, 9.106445%)" offset="0.113281"/><stop stop-opacity="1" stop-color="rgb(2.436829%, 2.342224%, 9.420776%)" offset="0.117188"/><stop stop-opacity="1" stop-color="rgb(2.5177%, 2.420044%, 9.735107%)" offset="0.121094"/><stop stop-opacity="1" stop-color="rgb(2.598572%, 2.49939%, 10.049438%)" offset="0.125"/><stop stop-opacity="1" stop-color="rgb(2.679443%, 2.577209%, 10.36377%)" offset="0.128906"/><stop stop-opacity="1" stop-color="rgb(2.761841%, 2.655029%, 10.678101%)" offset="0.132812"/><stop stop-opacity="1" stop-color="rgb(2.842712%, 2.732849%, 10.990906%)" offset="0.136719"/><stop stop-opacity="1" stop-color="rgb(2.923584%, 2.812195%, 11.305237%)" offset="0.140625"/><stop stop-opacity="1" stop-color="rgb(3.004456%, 2.890015%, 11.619568%)" offset="0.144531"/><stop stop-opacity="1" stop-color="rgb(3.086853%, 2.967834%, 11.933899%)" offset="0.148437"/><stop stop-opacity="1" stop-color="rgb(3.167725%, 3.045654%, 12.246704%)" offset="0.152344"/><stop stop-opacity="1" stop-color="rgb(3.248596%, 3.123474%, 12.561035%)" offset="0.15625"/><stop stop-opacity="1" stop-color="rgb(3.329468%, 3.201294%, 12.875366%)" offset="0.160156"/><stop stop-opacity="1" stop-color="rgb(3.411865%, 3.28064%, 13.189697%)" offset="0.164062"/><stop stop-opacity="1" stop-color="rgb(3.492737%, 3.358459%, 13.504028%)" offset="0.167969"/><stop stop-opacity="1" stop-color="rgb(3.573608%, 3.436279%, 13.818359%)" offset="0.171875"/><stop stop-opacity="1" stop-color="rgb(3.65448%, 3.514099%, 14.131165%)" offset="0.175781"/><stop stop-opacity="1" stop-color="rgb(3.736877%, 3.593445%, 14.445496%)" offset="0.179687"/><stop stop-opacity="1" stop-color="rgb(3.817749%, 3.671265%, 14.759827%)" offset="0.183594"/><stop stop-opacity="1" stop-color="rgb(3.898621%, 3.749084%, 15.074158%)" offset="0.1875"/><stop stop-opacity="1" stop-color="rgb(3.979492%, 3.826904%, 15.388489%)" offset="0.191406"/><stop stop-opacity="1" stop-color="rgb(4.06189%, 3.904724%, 15.70282%)" offset="0.195312"/><stop stop-opacity="1" stop-color="rgb(4.142761%, 3.982544%, 16.015625%)" offset="0.199219"/><stop stop-opacity="1" stop-color="rgb(4.223633%, 4.06189%, 16.329956%)" offset="0.203125"/><stop stop-opacity="1" stop-color="rgb(4.304504%, 4.139709%, 16.644287%)" offset="0.207031"/><stop stop-opacity="1" stop-color="rgb(4.386902%, 4.217529%, 16.958618%)" offset="0.210938"/><stop stop-opacity="1" stop-color="rgb(4.467773%, 4.295349%, 17.272949%)" offset="0.214844"/><stop stop-opacity="1" stop-color="rgb(4.548645%, 4.374695%, 17.58728%)" offset="0.21875"/><stop stop-opacity="1" stop-color="rgb(4.629517%, 4.452515%, 17.900085%)" offset="0.222656"/><stop stop-opacity="1" stop-color="rgb(4.711914%, 4.530334%, 18.214417%)" offset="0.226562"/><stop stop-opacity="1" stop-color="rgb(4.792786%, 4.608154%, 18.528748%)" offset="0.230469"/><stop stop-opacity="1" stop-color="rgb(4.873657%, 4.685974%, 18.843079%)" offset="0.234375"/><stop stop-opacity="1" stop-color="rgb(4.954529%, 4.763794%, 19.15741%)" offset="0.238281"/><stop stop-opacity="1" stop-color="rgb(5.036926%, 4.84314%, 19.471741%)" offset="0.242188"/><stop stop-opacity="1" stop-color="rgb(5.117798%, 4.920959%, 19.784546%)" offset="0.246094"/><stop stop-opacity="1" stop-color="rgb(5.198669%, 4.998779%, 20.098877%)" offset="0.25"/><stop stop-opacity="1" stop-color="rgb(5.279541%, 5.076599%, 20.413208%)" offset="0.253906"/><stop stop-opacity="1" stop-color="rgb(5.361938%, 5.155945%, 20.727539%)" offset="0.257812"/><stop stop-opacity="1" stop-color="rgb(5.44281%, 5.233765%, 21.04187%)" offset="0.261719"/><stop stop-opacity="1" stop-color="rgb(5.523682%, 5.311584%, 21.356201%)" offset="0.265625"/><stop stop-opacity="1" stop-color="rgb(5.604553%, 5.389404%, 21.669006%)" offset="0.269531"/><stop stop-opacity="1" stop-color="rgb(5.686951%, 5.467224%, 21.983337%)" offset="0.273437"/><stop stop-opacity="1" stop-color="rgb(5.767822%, 5.545044%, 22.297668%)" offset="0.277344"/><stop stop-opacity="1" stop-color="rgb(5.848694%, 5.62439%, 22.612%)" offset="0.28125"/><stop stop-opacity="1" stop-color="rgb(5.929565%, 5.702209%, 22.924805%)" offset="0.285156"/><stop stop-opacity="1" stop-color="rgb(6.011963%, 5.780029%, 23.239136%)" offset="0.289062"/><stop stop-opacity="1" stop-color="rgb(6.092834%, 5.857849%, 23.553467%)" offset="0.292969"/><stop stop-opacity="1" stop-color="rgb(6.173706%, 5.937195%, 23.867798%)" offset="0.296875"/><stop stop-opacity="1" stop-color="rgb(6.254578%, 6.015015%, 24.182129%)" offset="0.300781"/><stop stop-opacity="1" stop-color="rgb(6.336975%, 6.092834%, 24.49646%)" offset="0.304687"/><stop stop-opacity="1" stop-color="rgb(6.417847%, 6.170654%, 24.809265%)" offset="0.308594"/><stop stop-opacity="1" stop-color="rgb(6.498718%, 6.248474%, 25.123596%)" offset="0.3125"/><stop stop-opacity="1" stop-color="rgb(6.57959%, 6.326294%, 25.437927%)" offset="0.316406"/><stop stop-opacity="1" stop-color="rgb(6.661987%, 6.40564%, 25.752258%)" offset="0.320312"/><stop stop-opacity="1" stop-color="rgb(6.742859%, 6.483459%, 26.066589%)" offset="0.324219"/><stop stop-opacity="1" stop-color="rgb(6.82373%, 6.561279%, 26.38092%)" offset="0.328125"/><stop stop-opacity="1" stop-color="rgb(6.904602%, 6.639099%, 26.693726%)" offset="0.332031"/><stop stop-opacity="1" stop-color="rgb(6.987%, 6.718445%, 27.008057%)" offset="0.335937"/><stop stop-opacity="1" stop-color="rgb(7.067871%, 6.796265%, 27.322388%)" offset="0.339844"/><stop stop-opacity="1" stop-color="rgb(7.148743%, 6.874084%, 27.636719%)" offset="0.34375"/><stop stop-opacity="1" stop-color="rgb(7.229614%, 6.951904%, 27.95105%)" offset="0.347656"/><stop stop-opacity="1" stop-color="rgb(7.312012%, 7.029724%, 28.265381%)" offset="0.351562"/><stop stop-opacity="1" stop-color="rgb(7.392883%, 7.107544%, 28.578186%)" offset="0.355469"/><stop stop-opacity="1" stop-color="rgb(7.473755%, 7.18689%, 28.892517%)" offset="0.359375"/><stop stop-opacity="1" stop-color="rgb(7.554626%, 7.264709%, 29.206848%)" offset="0.363281"/><stop stop-opacity="1" stop-color="rgb(7.637024%, 7.342529%, 29.521179%)" offset="0.367187"/><stop stop-opacity="1" stop-color="rgb(7.717896%, 7.420349%, 29.83551%)" offset="0.371094"/><stop stop-opacity="1" stop-color="rgb(7.798767%, 7.499695%, 30.149841%)" offset="0.375"/><stop stop-opacity="1" stop-color="rgb(7.879639%, 7.577515%, 30.462646%)" offset="0.378906"/><stop stop-opacity="1" stop-color="rgb(7.962036%, 7.655334%, 30.776978%)" offset="0.382812"/><stop stop-opacity="1" stop-color="rgb(8.042908%, 7.733154%, 31.091309%)" offset="0.386719"/><stop stop-opacity="1" stop-color="rgb(8.123779%, 7.810974%, 31.40564%)" offset="0.390625"/><stop stop-opacity="1" stop-color="rgb(8.204651%, 7.888794%, 31.719971%)" offset="0.394531"/><stop stop-opacity="1" stop-color="rgb(8.287048%, 7.96814%, 32.034302%)" offset="0.398438"/><stop stop-opacity="1" stop-color="rgb(8.36792%, 8.045959%, 32.347107%)" offset="0.402344"/><stop stop-opacity="1" stop-color="rgb(8.448792%, 8.123779%, 32.661438%)" offset="0.40625"/><stop stop-opacity="1" stop-color="rgb(8.529663%, 8.201599%, 32.975769%)" offset="0.410156"/><stop stop-opacity="1" stop-color="rgb(8.612061%, 8.280945%, 33.2901%)" offset="0.414062"/><stop stop-opacity="1" stop-color="rgb(8.692932%, 8.358765%, 33.602905%)" offset="0.417969"/><stop stop-opacity="1" stop-color="rgb(8.773804%, 8.436584%, 33.917236%)" offset="0.421875"/><stop stop-opacity="1" stop-color="rgb(8.854675%, 8.514404%, 34.231567%)" offset="0.425781"/><stop stop-opacity="1" stop-color="rgb(8.937073%, 8.592224%, 34.545898%)" offset="0.429688"/><stop stop-opacity="1" stop-color="rgb(9.017944%, 8.670044%, 34.860229%)" offset="0.433594"/><stop stop-opacity="1" stop-color="rgb(9.098816%, 8.74939%, 35.174561%)" offset="0.4375"/><stop stop-opacity="1" stop-color="rgb(9.179688%, 8.827209%, 35.487366%)" offset="0.441406"/><stop stop-opacity="1" stop-color="rgb(9.262085%, 8.905029%, 35.801697%)" offset="0.445312"/><stop stop-opacity="1" stop-color="rgb(9.342957%, 8.982849%, 36.116028%)" offset="0.449219"/><stop stop-opacity="1" stop-color="rgb(9.423828%, 9.062195%, 36.430359%)" offset="0.453125"/><stop stop-opacity="1" stop-color="rgb(9.5047%, 9.140015%, 36.74469%)" offset="0.457031"/><stop stop-opacity="1" stop-color="rgb(9.587097%, 9.217834%, 37.059021%)" offset="0.460938"/><stop stop-opacity="1" stop-color="rgb(9.667969%, 9.295654%, 37.371826%)" offset="0.464844"/><stop stop-opacity="1" stop-color="rgb(9.74884%, 9.373474%, 37.686157%)" offset="0.46875"/><stop stop-opacity="1" stop-color="rgb(9.829712%, 9.451294%, 38.000488%)" offset="0.472656"/><stop stop-opacity="1" stop-color="rgb(9.912109%, 9.53064%, 38.314819%)" offset="0.476562"/><stop stop-opacity="1" stop-color="rgb(9.992981%, 9.608459%, 38.62915%)" offset="0.480469"/><stop stop-opacity="1" stop-color="rgb(10.073853%, 9.686279%, 38.943481%)" offset="0.484375"/><stop stop-opacity="1" stop-color="rgb(10.154724%, 9.764099%, 39.256287%)" offset="0.488281"/><stop stop-opacity="1" stop-color="rgb(10.237122%, 9.843445%, 39.570618%)" offset="0.492188"/><stop stop-opacity="1" stop-color="rgb(10.317993%, 9.921265%, 39.884949%)" offset="0.496094"/><stop stop-opacity="1" stop-color="rgb(10.398865%, 9.999084%, 40.19928%)" offset="0.5"/><stop stop-opacity="1" stop-color="rgb(10.479736%, 10.076904%, 40.513611%)" offset="0.503906"/><stop stop-opacity="1" stop-color="rgb(10.562134%, 10.154724%, 40.827942%)" offset="0.507812"/><stop stop-opacity="1" stop-color="rgb(10.643005%, 10.232544%, 41.140747%)" offset="0.511719"/><stop stop-opacity="1" stop-color="rgb(10.723877%, 10.31189%, 41.455078%)" offset="0.515625"/><stop stop-opacity="1" stop-color="rgb(10.804749%, 10.389709%, 41.769409%)" offset="0.519531"/><stop stop-opacity="1" stop-color="rgb(10.887146%, 10.467529%, 42.08374%)" offset="0.523437"/><stop stop-opacity="1" stop-color="rgb(10.968018%, 10.545349%, 42.398071%)" offset="0.527344"/><stop stop-opacity="1" stop-color="rgb(11.048889%, 10.624695%, 42.712402%)" offset="0.53125"/><stop stop-opacity="1" stop-color="rgb(11.129761%, 10.702515%, 43.025208%)" offset="0.535156"/><stop stop-opacity="1" stop-color="rgb(11.212158%, 10.780334%, 43.339539%)" offset="0.539062"/><stop stop-opacity="1" stop-color="rgb(11.29303%, 10.858154%, 43.65387%)" offset="0.542969"/><stop stop-opacity="1" stop-color="rgb(11.373901%, 10.935974%, 43.968201%)" offset="0.546875"/><stop stop-opacity="1" stop-color="rgb(11.454773%, 11.013794%, 44.282532%)" offset="0.550781"/><stop stop-opacity="1" stop-color="rgb(11.53717%, 11.09314%, 44.596863%)" offset="0.554687"/><stop stop-opacity="1" stop-color="rgb(11.618042%, 11.170959%, 44.909668%)" offset="0.558594"/><stop stop-opacity="1" stop-color="rgb(11.698914%, 11.248779%, 45.223999%)" offset="0.5625"/><stop stop-opacity="1" stop-color="rgb(11.779785%, 11.326599%, 45.53833%)" offset="0.566406"/><stop stop-opacity="1" stop-color="rgb(11.862183%, 11.405945%, 45.852661%)" offset="0.570312"/><stop stop-opacity="1" stop-color="rgb(11.943054%, 11.483765%, 46.165466%)" offset="0.574219"/><stop stop-opacity="1" stop-color="rgb(12.023926%, 11.561584%, 46.479797%)" offset="0.578125"/><stop stop-opacity="1" stop-color="rgb(12.104797%, 11.639404%, 46.794128%)" offset="0.582031"/><stop stop-opacity="1" stop-color="rgb(12.187195%, 11.717224%, 47.108459%)" offset="0.585937"/><stop stop-opacity="1" stop-color="rgb(12.268066%, 11.795044%, 47.422791%)" offset="0.589844"/><stop stop-opacity="1" stop-color="rgb(12.348938%, 11.87439%, 47.737122%)" offset="0.59375"/><stop stop-opacity="1" stop-color="rgb(12.42981%, 11.952209%, 48.049927%)" offset="0.597656"/><stop stop-opacity="1" stop-color="rgb(12.512207%, 12.030029%, 48.364258%)" offset="0.601562"/><stop stop-opacity="1" stop-color="rgb(12.593079%, 12.107849%, 48.678589%)" offset="0.605469"/><stop stop-opacity="1" stop-color="rgb(12.67395%, 12.187195%, 48.99292%)" offset="0.609375"/><stop stop-opacity="1" stop-color="rgb(12.754822%, 12.265015%, 49.307251%)" offset="0.613281"/><stop stop-opacity="1" stop-color="rgb(12.837219%, 12.342834%, 49.621582%)" offset="0.617187"/><stop stop-opacity="1" stop-color="rgb(12.918091%, 12.420654%, 49.934387%)" offset="0.621094"/><stop stop-opacity="1" stop-color="rgb(12.998962%, 12.498474%, 50.248718%)" offset="0.625"/><stop stop-opacity="1" stop-color="rgb(13.079834%, 12.576294%, 50.563049%)" offset="0.628906"/><stop stop-opacity="1" stop-color="rgb(13.162231%, 12.65564%, 50.87738%)" offset="0.632812"/><stop stop-opacity="1" stop-color="rgb(13.243103%, 12.733459%, 51.191711%)" offset="0.636719"/><stop stop-opacity="1" stop-color="rgb(13.323975%, 12.811279%, 51.506042%)" offset="0.640625"/><stop stop-opacity="1" stop-color="rgb(13.404846%, 12.889099%, 51.818848%)" offset="0.644531"/><stop stop-opacity="1" stop-color="rgb(13.487244%, 12.968445%, 52.133179%)" offset="0.648437"/><stop stop-opacity="1" stop-color="rgb(13.568115%, 13.046265%, 52.44751%)" offset="0.652344"/><stop stop-opacity="1" stop-color="rgb(13.648987%, 13.124084%, 52.761841%)" offset="0.65625"/><stop stop-opacity="1" stop-color="rgb(13.729858%, 13.201904%, 53.076172%)" offset="0.660156"/><stop stop-opacity="1" stop-color="rgb(13.812256%, 13.279724%, 53.390503%)" offset="0.664062"/><stop stop-opacity="1" stop-color="rgb(13.893127%, 13.357544%, 53.703308%)" offset="0.667969"/><stop stop-opacity="1" stop-color="rgb(13.973999%, 13.43689%, 54.017639%)" offset="0.671875"/><stop stop-opacity="1" stop-color="rgb(14.054871%, 13.514709%, 54.33197%)" offset="0.675781"/><stop stop-opacity="1" stop-color="rgb(14.137268%, 13.592529%, 54.646301%)" offset="0.679687"/><stop stop-opacity="1" stop-color="rgb(14.21814%, 13.670349%, 54.960632%)" offset="0.683594"/><stop stop-opacity="1" stop-color="rgb(14.299011%, 13.749695%, 55.274963%)" offset="0.6875"/><stop stop-opacity="1" stop-color="rgb(14.379883%, 13.827515%, 55.587769%)" offset="0.691406"/><stop stop-opacity="1" stop-color="rgb(14.46228%, 13.905334%, 55.9021%)" offset="0.695312"/><stop stop-opacity="1" stop-color="rgb(14.543152%, 13.983154%, 56.216431%)" offset="0.699219"/><stop stop-opacity="1" stop-color="rgb(14.624023%, 14.060974%, 56.530762%)" offset="0.703125"/><stop stop-opacity="1" stop-color="rgb(14.704895%, 14.138794%, 56.843567%)" offset="0.707031"/><stop stop-opacity="1" stop-color="rgb(14.787292%, 14.21814%, 57.157898%)" offset="0.710937"/><stop stop-opacity="1" stop-color="rgb(14.868164%, 14.295959%, 57.472229%)" offset="0.714844"/><stop stop-opacity="1" stop-color="rgb(14.949036%, 14.373779%, 57.78656%)" offset="0.71875"/><stop stop-opacity="1" stop-color="rgb(15.029907%, 14.451599%, 58.100891%)" offset="0.722656"/><stop stop-opacity="1" stop-color="rgb(15.112305%, 14.530945%, 58.415222%)" offset="0.726562"/><stop stop-opacity="1" stop-color="rgb(15.193176%, 14.608765%, 58.728027%)" offset="0.730469"/><stop stop-opacity="1" stop-color="rgb(15.274048%, 14.686584%, 59.042358%)" offset="0.734375"/><stop stop-opacity="1" stop-color="rgb(15.354919%, 14.764404%, 59.356689%)" offset="0.738281"/><stop stop-opacity="1" stop-color="rgb(15.437317%, 14.842224%, 59.671021%)" offset="0.742187"/><stop stop-opacity="1" stop-color="rgb(15.518188%, 14.920044%, 59.985352%)" offset="0.746094"/><stop stop-opacity="1" stop-color="rgb(15.59906%, 14.99939%, 60.299683%)" offset="0.75"/><stop stop-opacity="1" stop-color="rgb(15.679932%, 15.077209%, 60.612488%)" offset="0.753906"/><stop stop-opacity="1" stop-color="rgb(15.762329%, 15.155029%, 60.926819%)" offset="0.757812"/><stop stop-opacity="1" stop-color="rgb(15.843201%, 15.232849%, 61.24115%)" offset="0.761719"/><stop stop-opacity="1" stop-color="rgb(15.924072%, 15.312195%, 61.555481%)" offset="0.765625"/><stop stop-opacity="1" stop-color="rgb(16.004944%, 15.390015%, 61.869812%)" offset="0.769531"/><stop stop-opacity="1" stop-color="rgb(16.087341%, 15.467834%, 62.184143%)" offset="0.773438"/><stop stop-opacity="1" stop-color="rgb(16.168213%, 15.545654%, 62.496948%)" offset="0.777344"/><stop stop-opacity="1" stop-color="rgb(16.249084%, 15.623474%, 62.811279%)" offset="0.78125"/><stop stop-opacity="1" stop-color="rgb(16.329956%, 15.701294%, 63.12561%)" offset="0.785156"/><stop stop-opacity="1" stop-color="rgb(16.412354%, 15.78064%, 63.439941%)" offset="0.789062"/><stop stop-opacity="1" stop-color="rgb(16.493225%, 15.858459%, 63.754272%)" offset="0.792969"/><stop stop-opacity="1" stop-color="rgb(16.574097%, 15.936279%, 64.068604%)" offset="0.796875"/><stop stop-opacity="1" stop-color="rgb(16.654968%, 16.014099%, 64.381409%)" offset="0.800781"/><stop stop-opacity="1" stop-color="rgb(16.737366%, 16.093445%, 64.69574%)" offset="0.804688"/><stop stop-opacity="1" stop-color="rgb(16.818237%, 16.171265%, 65.010071%)" offset="0.808594"/><stop stop-opacity="1" stop-color="rgb(16.899109%, 16.249084%, 65.324402%)" offset="0.8125"/><stop stop-opacity="1" stop-color="rgb(16.97998%, 16.326904%, 65.638733%)" offset="0.816406"/><stop stop-opacity="1" stop-color="rgb(17.062378%, 16.404724%, 65.953064%)" offset="0.820312"/><stop stop-opacity="1" stop-color="rgb(17.14325%, 16.482544%, 66.265869%)" offset="0.824219"/><stop stop-opacity="1" stop-color="rgb(17.224121%, 16.56189%, 66.5802%)" offset="0.828125"/><stop stop-opacity="1" stop-color="rgb(17.304993%, 16.639709%, 66.894531%)" offset="0.832031"/><stop stop-opacity="1" stop-color="rgb(17.38739%, 16.717529%, 67.208862%)" offset="0.835938"/><stop stop-opacity="1" stop-color="rgb(17.468262%, 16.795349%, 67.521667%)" offset="0.839844"/><stop stop-opacity="1" stop-color="rgb(17.549133%, 16.874695%, 67.835999%)" offset="0.84375"/><stop stop-opacity="1" stop-color="rgb(17.630005%, 16.952515%, 68.15033%)" offset="0.847656"/><stop stop-opacity="1" stop-color="rgb(17.712402%, 17.030334%, 68.464661%)" offset="0.851562"/><stop stop-opacity="1" stop-color="rgb(17.793274%, 17.108154%, 68.778992%)" offset="0.855469"/><stop stop-opacity="1" stop-color="rgb(17.874146%, 17.185974%, 69.093323%)" offset="0.859375"/><stop stop-opacity="1" stop-color="rgb(17.955017%, 17.263794%, 69.406128%)" offset="0.863281"/><stop stop-opacity="1" stop-color="rgb(18.037415%, 17.34314%, 69.720459%)" offset="0.867188"/><stop stop-opacity="1" stop-color="rgb(18.118286%, 17.420959%, 70.03479%)" offset="0.871094"/><stop stop-opacity="1" stop-color="rgb(18.199158%, 17.498779%, 70.349121%)" offset="0.875"/><stop stop-opacity="1" stop-color="rgb(18.280029%, 17.576599%, 70.663452%)" offset="0.878906"/><stop stop-opacity="1" stop-color="rgb(18.362427%, 17.655945%, 70.977783%)" offset="0.882812"/><stop stop-opacity="1" stop-color="rgb(18.443298%, 17.733765%, 71.290588%)" offset="0.886719"/><stop stop-opacity="1" stop-color="rgb(18.52417%, 17.811584%, 71.604919%)" offset="0.890625"/><stop stop-opacity="1" stop-color="rgb(18.605042%, 17.889404%, 71.91925%)" offset="0.894531"/><stop stop-opacity="1" stop-color="rgb(18.687439%, 17.967224%, 72.233582%)" offset="0.898438"/><stop stop-opacity="1" stop-color="rgb(18.768311%, 18.045044%, 72.547913%)" offset="0.902344"/><stop stop-opacity="1" stop-color="rgb(18.849182%, 18.12439%, 72.862244%)" offset="0.90625"/><stop stop-opacity="1" stop-color="rgb(18.930054%, 18.202209%, 73.175049%)" offset="0.910156"/><stop stop-opacity="1" stop-color="rgb(19.012451%, 18.280029%, 73.48938%)" offset="0.914062"/><stop stop-opacity="1" stop-color="rgb(19.093323%, 18.357849%, 73.803711%)" offset="0.917969"/><stop stop-opacity="1" stop-color="rgb(19.174194%, 18.437195%, 74.118042%)" offset="0.921875"/><stop stop-opacity="1" stop-color="rgb(19.255066%, 18.515015%, 74.432373%)" offset="0.925781"/><stop stop-opacity="1" stop-color="rgb(19.337463%, 18.592834%, 74.746704%)" offset="0.929688"/><stop stop-opacity="1" stop-color="rgb(19.418335%, 18.670654%, 75.059509%)" offset="0.933594"/><stop stop-opacity="1" stop-color="rgb(19.499207%, 18.748474%, 75.37384%)" offset="0.9375"/><stop stop-opacity="1" stop-color="rgb(19.580078%, 18.826294%, 75.688171%)" offset="0.941406"/><stop stop-opacity="1" stop-color="rgb(19.662476%, 18.90564%, 76.002502%)" offset="0.945312"/><stop stop-opacity="1" stop-color="rgb(19.743347%, 18.983459%, 76.316833%)" offset="0.949219"/><stop stop-opacity="1" stop-color="rgb(19.824219%, 19.061279%, 76.631165%)" offset="0.953125"/><stop stop-opacity="1" stop-color="rgb(19.90509%, 19.139099%, 76.94397%)" offset="0.957031"/><stop stop-opacity="1" stop-color="rgb(19.987488%, 19.218445%, 77.258301%)" offset="0.960938"/><stop stop-opacity="1" stop-color="rgb(20.068359%, 19.296265%, 77.572632%)" offset="0.964844"/><stop stop-opacity="1" stop-color="rgb(20.149231%, 19.374084%, 77.886963%)" offset="0.96875"/><stop stop-opacity="1" stop-color="rgb(20.230103%, 19.451904%, 78.199768%)" offset="0.972656"/><stop stop-opacity="1" stop-color="rgb(20.310974%, 19.529724%, 78.514099%)" offset="0.976562"/><stop stop-opacity="1" stop-color="rgb(20.391846%, 19.607544%, 78.82843%)" offset="0.980469"/><stop stop-opacity="1" stop-color="rgb(20.474243%, 19.68689%, 79.142761%)" offset="0.984375"/><stop stop-opacity="1" stop-color="rgb(20.555115%, 19.764709%, 79.457092%)" offset="0.988281"/><stop stop-opacity="1" stop-color="rgb(20.635986%, 19.842529%, 79.771423%)" offset="0.992188"/><stop stop-opacity="1" stop-color="rgb(20.716858%, 19.920349%, 80.084229%)" offset="0.996094"/><stop stop-opacity="1" stop-color="rgb(20.799255%, 19.999695%, 80.39856%)" offset="1"/></linearGradient><clipPath id="3234ae913f"><path d="M 115.480469 106.429688 L 206 106.429688 L 206 238.429688 L 115.480469 238.429688 Z M 115.480469 106.429688 " clip-rule="nonzero"/></clipPath><clipPath id="9740a789da"><path d="M 169 106.429688 L 259.480469 106.429688 L 259.480469 238.429688 L 169 238.429688 Z M 169 106.429688 " clip-rule="nonzero"/></clipPath></defs><rect x="-37.5" fill="url(#d04d0730cc)" width="450" y="-37.499999" height="449.999989"/><g clip-path="url(#3234ae913f)"><path fill="#2957a3" d="M 196.386719 106.429688 L 205.292969 106.429688 L 205.292969 124.25 L 196.386719 124.25 L 196.386719 115.339844 L 124.585938 115.339844 L 124.585938 133.160156 L 160.765625 133.160156 L 160.765625 142.070312 L 115.679688 142.070312 L 115.679688 106.429688 Z M 205.292969 150.980469 L 205.292969 238.410156 L 196.386719 238.410156 L 196.386719 150.980469 Z M 205.292969 150.980469 " fill-opacity="1" fill-rule="evenodd"/></g><g clip-path="url(#9740a789da)"><path fill="#00aeee" d="M 214.199219 106.429688 L 259.28125 106.429688 L 259.28125 142.070312 L 178.578125 142.070312 L 178.578125 238.410156 L 169.671875 238.410156 L 169.671875 133.160156 L 250.375 133.160156 L 250.375 115.339844 L 214.199219 115.339844 Z M 214.199219 106.429688 " fill-opacity="1" fill-rule="evenodd"/></g><g fill="#ffffff" fill-opacity="1"><g transform="translate(133.341998, 272.500441)"><g><path d="M 13.6875 -14.25 L 8.359375 -14.25 L 8.359375 0 L 5.515625 0 L 5.515625 -14.25 L 0.21875 -14.25 L 0.21875 -16.796875 L 13.6875 -16.796875 Z M 13.6875 -14.25 "/></g></g></g><g fill="#ffffff" fill-opacity="1"><g transform="translate(145.96602, 272.500441)"><g><path d="M 12.859375 0 L 9.796875 -5.09375 C 9.628906 -5.070312 9.375 -5.0625 9.03125 -5.0625 L 5.046875 -5.0625 L 5.046875 0 L 2.203125 0 L 2.203125 -16.796875 L 9.03125 -16.796875 C 11.164062 -16.796875 12.828125 -16.296875 14.015625 -15.296875 C 15.203125 -14.296875 15.796875 -12.882812 15.796875 -11.0625 C 15.796875 -9.71875 15.492188 -8.582031 14.890625 -7.65625 C 14.285156 -6.726562 13.425781 -6.046875 12.3125 -5.609375 L 16.078125 0 Z M 5.046875 -7.609375 L 9.03125 -7.609375 C 11.75 -7.609375 13.109375 -8.734375 13.109375 -10.984375 C 13.109375 -13.160156 11.75 -14.25 9.03125 -14.25 L 5.046875 -14.25 Z M 5.046875 -7.609375 "/></g></g></g><g fill="#ffffff" fill-opacity="1"><g transform="translate(162.046055, 272.500441)"><g><path d="M 9.703125 -18.625 L 7.25 -18.625 L 9.796875 -22.171875 L 12.625 -20.96875 Z M 13.0625 -3.796875 L 4.578125 -3.796875 L 2.96875 0 L 0.03125 0 L 7.4375 -16.796875 L 10.34375 -16.796875 L 17.6875 0 L 14.65625 0 Z M 11.96875 -6.3125 L 8.8125 -13.78125 L 5.640625 -6.3125 Z M 11.96875 -6.3125 "/></g></g></g><g fill="#ffffff" fill-opacity="1"><g transform="translate(178.486087, 272.500441)"><g><path d="M 13.46875 -14.25 L 5.046875 -14.25 L 5.046875 -9.40625 L 12.671875 -9.40625 L 12.671875 -6.890625 L 5.046875 -6.890625 L 5.046875 0 L 2.203125 0 L 2.203125 -16.796875 L 13.484375 -16.796875 Z M 13.46875 -14.25 "/></g></g></g><g fill="#ffffff" fill-opacity="1"><g transform="translate(191.014117, 272.500441)"><g><path d="M 14.203125 -14.25 L 5.046875 -14.25 L 5.046875 -9.71875 L 13.25 -9.71875 L 13.25 -7.171875 L 5.046875 -7.171875 L 5.046875 -2.546875 L 14.5 -2.546875 L 14.5 0 L 2.203125 0 L 2.203125 -16.796875 L 14.203125 -16.796875 Z M 14.203125 -14.25 "/></g></g></g><g fill="#ffffff" fill-opacity="1"><g transform="translate(205.486154, 272.500441)"><g><path d="M 13.703125 -8.25 L 16.171875 -8.25 L 16.171875 -2.0625 C 15.304688 -1.40625 14.285156 -0.875 13.109375 -0.46875 C 11.941406 -0.0703125 10.785156 0.125 9.640625 0.125 C 7.160156 0.125 5.066406 -0.691406 3.359375 -2.328125 C 1.660156 -3.972656 0.8125 -5.992188 0.8125 -8.390625 C 0.8125 -10.796875 1.675781 -12.8125 3.40625 -14.4375 C 5.132812 -16.0625 7.269531 -16.875 9.8125 -16.875 C 11 -16.875 12.164062 -16.660156 13.3125 -16.234375 C 14.457031 -15.804688 15.441406 -15.234375 16.265625 -14.515625 L 14.65625 -12.4375 C 13.28125 -13.71875 11.664062 -14.359375 9.8125 -14.359375 C 8.101562 -14.359375 6.65625 -13.78125 5.46875 -12.625 C 4.289062 -11.46875 3.703125 -10.0625 3.703125 -8.40625 C 3.703125 -6.71875 4.296875 -5.296875 5.484375 -4.140625 C 6.671875 -2.992188 8.125 -2.421875 9.84375 -2.421875 C 11.132812 -2.421875 12.421875 -2.804688 13.703125 -3.578125 Z M 13.703125 -8.25 "/></g></g></g><g fill="#ffffff" fill-opacity="1"><g transform="translate(222.19019, 272.500441)"><g><path d="M 3.375 -14.4375 C 5.09375 -16.0625 7.207031 -16.875 9.71875 -16.875 C 12.226562 -16.875 14.335938 -16.0625 16.046875 -14.4375 C 17.765625 -12.8125 18.625 -10.796875 18.625 -8.390625 C 18.625 -5.992188 17.765625 -3.972656 16.046875 -2.328125 C 14.335938 -0.691406 12.226562 0.125 9.71875 0.125 C 7.207031 0.125 5.09375 -0.691406 3.375 -2.328125 C 1.664062 -3.972656 0.8125 -5.992188 0.8125 -8.390625 C 0.8125 -10.796875 1.664062 -12.8125 3.375 -14.4375 Z M 9.75 -14.328125 C 8.082031 -14.328125 6.65625 -13.753906 5.46875 -12.609375 C 4.289062 -11.460938 3.703125 -10.054688 3.703125 -8.390625 C 3.703125 -6.734375 4.296875 -5.320312 5.484375 -4.15625 C 6.671875 -3 8.085938 -2.421875 9.734375 -2.421875 C 11.390625 -2.421875 12.800781 -3 13.96875 -4.15625 C 15.132812 -5.320312 15.71875 -6.734375 15.71875 -8.390625 C 15.71875 -10.054688 15.132812 -11.460938 13.96875 -12.609375 C 12.800781 -13.753906 11.394531 -14.328125 9.75 -14.328125 Z M 9.75 -14.328125 "/></g></g></g><g fill="#00aeee" fill-opacity="1"><g transform="translate(126.411148, 292.650449)"><g><path d="M 9.703125 -11.1875 C 10.003906 -11.1875 10.332031 -11.113281 10.6875 -10.96875 C 11.007812 -10.84375 11.171875 -10.597656 11.171875 -10.234375 L 11.171875 -0.59375 C 11.171875 -0.144531 10.894531 0.078125 10.34375 0.078125 C 9.789062 0.078125 9.515625 -0.144531 9.515625 -0.59375 L 9.515625 -7.78125 L 9.109375 -7.828125 L 8.546875 -6 L 6.875 -0.40625 C 6.769531 -0.0820312 6.519531 0.0703125 6.125 0.0625 C 5.945312 0.0625 5.789062 0.0195312 5.65625 -0.0625 C 5.519531 -0.15625 5.429688 -0.28125 5.390625 -0.4375 L 4.375 -3.703125 C 4.175781 -4.335938 3.972656 -4.988281 3.765625 -5.65625 C 3.554688 -6.320312 3.332031 -7.0625 3.09375 -7.875 L 2.6875 -7.828125 L 2.6875 -0.59375 C 2.6875 -0.144531 2.410156 0.078125 1.859375 0.078125 C 1.304688 0.078125 1.03125 -0.144531 1.03125 -0.59375 L 1.03125 -10.234375 C 1.03125 -10.585938 1.195312 -10.832031 1.53125 -10.96875 C 1.875 -11.113281 2.203125 -11.179688 2.515625 -11.171875 C 2.660156 -11.171875 2.804688 -11.148438 2.953125 -11.109375 C 3.097656 -11.078125 3.234375 -11.023438 3.359375 -10.953125 C 3.492188 -10.878906 3.613281 -10.789062 3.71875 -10.6875 C 3.820312 -10.582031 3.90625 -10.457031 3.96875 -10.3125 L 6.15625 -2.828125 C 6.3125 -3.378906 6.476562 -3.976562 6.65625 -4.625 C 6.84375 -5.269531 7.023438 -5.921875 7.203125 -6.578125 C 7.390625 -7.242188 7.570312 -7.898438 7.75 -8.546875 C 7.9375 -9.191406 8.113281 -9.796875 8.28125 -10.359375 C 8.332031 -10.492188 8.410156 -10.609375 8.515625 -10.703125 C 8.617188 -10.804688 8.734375 -10.894531 8.859375 -10.96875 C 8.992188 -11.039062 9.128906 -11.09375 9.265625 -11.125 C 9.410156 -11.164062 9.554688 -11.1875 9.703125 -11.1875 Z M 9.703125 -11.1875 "/></g></g></g><g fill="#00aeee" fill-opacity="1"><g transform="translate(144.744521, 292.650449)"><g><path d="M 4.796875 -9.75 L 1.734375 -0.34375 C 1.679688 -0.207031 1.601562 -0.09375 1.5 0 C 1.40625 0.0820312 1.285156 0.125 1.140625 0.125 C 1.066406 0.125 0.992188 0.113281 0.921875 0.09375 C 0.859375 0.0820312 0.789062 0.0703125 0.71875 0.0625 L 0.734375 0.0625 C 0.203125 -0.113281 0.00390625 -0.414062 0.140625 -0.84375 L 3.328125 -10.546875 C 3.378906 -10.691406 3.460938 -10.816406 3.578125 -10.921875 C 3.691406 -11.023438 3.828125 -11.085938 3.984375 -11.109375 C 4.148438 -11.128906 4.304688 -11.144531 4.453125 -11.15625 C 4.597656 -11.175781 4.710938 -11.1875 4.796875 -11.1875 C 4.878906 -11.1875 4.992188 -11.175781 5.140625 -11.15625 C 5.296875 -11.144531 5.453125 -11.128906 5.609375 -11.109375 C 5.742188 -11.097656 5.875 -11.03125 6 -10.90625 C 6.125 -10.78125 6.21875 -10.660156 6.28125 -10.546875 C 6.800781 -8.941406 7.332031 -7.320312 7.875 -5.6875 C 8.414062 -4.0625 8.945312 -2.445312 9.46875 -0.84375 C 9.59375 -0.414062 9.394531 -0.113281 8.875 0.0625 C 8.800781 0.0703125 8.734375 0.0820312 8.671875 0.09375 C 8.609375 0.113281 8.539062 0.125 8.46875 0.125 C 8.34375 0.125 8.222656 0.0820312 8.109375 0 C 8.003906 -0.09375 7.925781 -0.207031 7.875 -0.34375 Z M 5.859375 -3.359375 C 5.859375 -3.054688 5.75 -2.800781 5.53125 -2.59375 C 5.320312 -2.382812 5.070312 -2.28125 4.78125 -2.28125 C 4.476562 -2.28125 4.222656 -2.382812 4.015625 -2.59375 C 3.804688 -2.800781 3.703125 -3.054688 3.703125 -3.359375 C 3.703125 -3.660156 3.804688 -3.914062 4.015625 -4.125 C 4.222656 -4.332031 4.476562 -4.4375 4.78125 -4.4375 C 5.070312 -4.4375 5.320312 -4.332031 5.53125 -4.125 C 5.75 -3.914062 5.859375 -3.660156 5.859375 -3.359375 Z M 5.859375 -3.359375 "/></g></g></g><g fill="#00aeee" fill-opacity="1"><g transform="translate(160.657239, 292.650449)"><g><path d="M 7.328125 -10.515625 C 7.328125 -10.960938 7.597656 -11.1875 8.140625 -11.1875 C 8.691406 -11.1875 8.96875 -10.960938 8.96875 -10.515625 L 8.96875 -0.859375 C 8.96875 -0.523438 8.796875 -0.285156 8.453125 -0.140625 L 8.46875 -0.140625 C 8.320312 -0.078125 8.160156 -0.03125 7.984375 0 C 7.816406 0.0390625 7.65625 0.0625 7.5 0.0625 C 7.382812 0.0625 7.257812 0.0507812 7.125 0.03125 C 7 0.0078125 6.875 -0.0234375 6.75 -0.078125 C 6.632812 -0.128906 6.523438 -0.195312 6.421875 -0.28125 C 6.328125 -0.375 6.253906 -0.484375 6.203125 -0.609375 L 3.15625 -8.1875 L 2.78125 -8.140625 L 2.78125 -0.59375 C 2.78125 -0.144531 2.503906 0.078125 1.953125 0.078125 C 1.398438 0.078125 1.125 -0.144531 1.125 -0.59375 L 1.125 -10.234375 C 1.125 -10.617188 1.289062 -10.875 1.625 -11 C 1.9375 -11.125 2.265625 -11.1875 2.609375 -11.1875 C 2.847656 -11.1875 3.085938 -11.132812 3.328125 -11.03125 C 3.578125 -10.9375 3.769531 -10.753906 3.90625 -10.484375 L 6.9375 -2.890625 L 7.328125 -2.9375 Z M 7.328125 -10.515625 "/></g></g></g><g fill="#00aeee" fill-opacity="1"><g transform="translate(176.905774, 292.650449)"><g><path d="M 4.796875 -9.75 L 1.734375 -0.34375 C 1.679688 -0.207031 1.601562 -0.09375 1.5 0 C 1.40625 0.0820312 1.285156 0.125 1.140625 0.125 C 1.066406 0.125 0.992188 0.113281 0.921875 0.09375 C 0.859375 0.0820312 0.789062 0.0703125 0.71875 0.0625 L 0.734375 0.0625 C 0.203125 -0.113281 0.00390625 -0.414062 0.140625 -0.84375 L 3.328125 -10.546875 C 3.378906 -10.691406 3.460938 -10.816406 3.578125 -10.921875 C 3.691406 -11.023438 3.828125 -11.085938 3.984375 -11.109375 C 4.148438 -11.128906 4.304688 -11.144531 4.453125 -11.15625 C 4.597656 -11.175781 4.710938 -11.1875 4.796875 -11.1875 C 4.878906 -11.1875 4.992188 -11.175781 5.140625 -11.15625 C 5.296875 -11.144531 5.453125 -11.128906 5.609375 -11.109375 C 5.742188 -11.097656 5.875 -11.03125 6 -10.90625 C 6.125 -10.78125 6.21875 -10.660156 6.28125 -10.546875 C 6.800781 -8.941406 7.332031 -7.320312 7.875 -5.6875 C 8.414062 -4.0625 8.945312 -2.445312 9.46875 -0.84375 C 9.59375 -0.414062 9.394531 -0.113281 8.875 0.0625 C 8.800781 0.0703125 8.734375 0.0820312 8.671875 0.09375 C 8.609375 0.113281 8.539062 0.125 8.46875 0.125 C 8.34375 0.125 8.222656 0.0820312 8.109375 0 C 8.003906 -0.09375 7.925781 -0.207031 7.875 -0.34375 Z M 5.859375 -3.359375 C 5.859375 -3.054688 5.75 -2.800781 5.53125 -2.59375 C 5.320312 -2.382812 5.070312 -2.28125 4.78125 -2.28125 C 4.476562 -2.28125 4.222656 -2.382812 4.015625 -2.59375 C 3.804688 -2.800781 3.703125 -3.054688 3.703125 -3.359375 C 3.703125 -3.660156 3.804688 -3.914062 4.015625 -4.125 C 4.222656 -4.332031 4.476562 -4.4375 4.78125 -4.4375 C 5.070312 -4.4375 5.320312 -4.332031 5.53125 -4.125 C 5.75 -3.914062 5.859375 -3.660156 5.859375 -3.359375 Z M 5.859375 -3.359375 "/></g></g></g><g fill="#00aeee" fill-opacity="1"><g transform="translate(192.818491, 292.650449)"><g><path d="M 6.875 -5.046875 C 6.875 -5.503906 7.15625 -5.734375 7.71875 -5.734375 C 8.269531 -5.734375 8.546875 -5.515625 8.546875 -5.078125 L 8.546875 -2.234375 C 8.546875 -1.484375 8.289062 -0.921875 7.78125 -0.546875 C 7.539062 -0.367188 7.289062 -0.226562 7.03125 -0.125 C 6.78125 -0.03125 6.53125 0.015625 6.28125 0.015625 L 3.375 0.015625 C 3.132812 0.015625 2.882812 -0.03125 2.625 -0.125 C 2.363281 -0.226562 2.113281 -0.367188 1.875 -0.546875 C 1.632812 -0.734375 1.445312 -0.960938 1.3125 -1.234375 C 1.1875 -1.515625 1.125 -1.847656 1.125 -2.234375 L 1.125 -8.890625 C 1.125 -9.273438 1.191406 -9.601562 1.328125 -9.875 C 1.460938 -10.15625 1.644531 -10.382812 1.875 -10.5625 L 1.859375 -10.5625 C 2.097656 -10.726562 2.347656 -10.859375 2.609375 -10.953125 C 2.878906 -11.054688 3.132812 -11.109375 3.375 -11.109375 L 6.140625 -11.109375 C 6.390625 -11.109375 6.644531 -11.054688 6.90625 -10.953125 C 7.164062 -10.859375 7.414062 -10.726562 7.65625 -10.5625 L 7.640625 -10.5625 C 8.140625 -10.207031 8.390625 -9.648438 8.390625 -8.890625 L 8.390625 -7.921875 C 8.390625 -7.472656 8.113281 -7.25 7.5625 -7.25 C 7.007812 -7.25 6.734375 -7.472656 6.734375 -7.921875 L 6.734375 -8.765625 C 6.734375 -8.992188 6.660156 -9.207031 6.515625 -9.40625 C 6.378906 -9.601562 6.140625 -9.703125 5.796875 -9.703125 L 3.734375 -9.703125 C 3.378906 -9.703125 3.128906 -9.601562 2.984375 -9.40625 C 2.847656 -9.207031 2.78125 -8.992188 2.78125 -8.765625 L 2.78125 -2.359375 C 2.78125 -2.234375 2.796875 -2.113281 2.828125 -2 C 2.867188 -1.882812 2.925781 -1.78125 3 -1.6875 C 3.070312 -1.601562 3.164062 -1.535156 3.28125 -1.484375 C 3.40625 -1.429688 3.554688 -1.40625 3.734375 -1.40625 L 5.9375 -1.40625 C 6.28125 -1.40625 6.519531 -1.5 6.65625 -1.6875 C 6.800781 -1.882812 6.875 -2.109375 6.875 -2.359375 Z M 6.21875 -5.203125 C 6.21875 -5.046875 6.1875 -4.894531 6.125 -4.75 C 6.0625 -4.601562 5.976562 -4.476562 5.875 -4.375 C 5.769531 -4.28125 5.644531 -4.203125 5.5 -4.140625 C 5.363281 -4.078125 5.210938 -4.046875 5.046875 -4.046875 C 4.722656 -4.046875 4.445312 -4.15625 4.21875 -4.375 C 4 -4.601562 3.890625 -4.878906 3.890625 -5.203125 C 3.890625 -5.523438 4 -5.796875 4.21875 -6.015625 C 4.445312 -6.242188 4.722656 -6.359375 5.046875 -6.359375 C 5.210938 -6.359375 5.363281 -6.328125 5.5 -6.265625 C 5.644531 -6.203125 5.769531 -6.117188 5.875 -6.015625 C 5.976562 -5.910156 6.0625 -5.789062 6.125 -5.65625 C 6.1875 -5.519531 6.21875 -5.367188 6.21875 -5.203125 Z M 6.21875 -5.203125 "/></g></g></g><g fill="#00aeee" fill-opacity="1"><g transform="translate(208.703226, 292.650449)"><g><path d="M 2.015625 0.015625 C 1.671875 0.015625 1.4375 -0.0703125 1.3125 -0.25 C 1.195312 -0.425781 1.140625 -0.625 1.140625 -0.84375 L 1.140625 -10.28125 C 1.140625 -10.488281 1.195312 -10.675781 1.3125 -10.84375 C 1.4375 -11.019531 1.671875 -11.109375 2.015625 -11.109375 L 6.890625 -11.109375 C 7.234375 -11.109375 7.414062 -10.878906 7.4375 -10.421875 C 7.457031 -9.941406 7.273438 -9.703125 6.890625 -9.703125 L 2.78125 -9.703125 L 2.78125 -1.40625 L 7.140625 -1.40625 C 7.484375 -1.40625 7.660156 -1.175781 7.671875 -0.71875 C 7.691406 -0.226562 7.515625 0.015625 7.140625 0.015625 Z M 6.375 -5.78125 C 6.375 -5.457031 6.257812 -5.179688 6.03125 -4.953125 C 5.800781 -4.734375 5.519531 -4.625 5.1875 -4.625 C 4.875 -4.625 4.601562 -4.734375 4.375 -4.953125 C 4.15625 -5.179688 4.046875 -5.457031 4.046875 -5.78125 C 4.046875 -6.101562 4.15625 -6.375 4.375 -6.59375 C 4.601562 -6.820312 4.875 -6.9375 5.1875 -6.9375 C 5.519531 -6.9375 5.800781 -6.820312 6.03125 -6.59375 C 6.257812 -6.375 6.375 -6.101562 6.375 -5.78125 Z M 6.375 -5.78125 "/></g></g></g><g fill="#00aeee" fill-opacity="1"><g transform="translate(223.07681, 292.650449)"><g><path d="M 5.078125 -4.609375 L 4 -4.609375 C 3.84375 -4.609375 3.71875 -4.671875 3.625 -4.796875 C 3.539062 -4.921875 3.5 -5.09375 3.5 -5.3125 C 3.5 -5.78125 3.695312 -6.015625 4.09375 -6.015625 L 5.71875 -6.015625 C 6.070312 -6.015625 6.316406 -6.113281 6.453125 -6.3125 C 6.585938 -6.507812 6.65625 -6.722656 6.65625 -6.953125 L 6.65625 -8.765625 C 6.65625 -8.992188 6.585938 -9.207031 6.453125 -9.40625 C 6.316406 -9.601562 6.070312 -9.703125 5.71875 -9.703125 L 2.765625 -9.703125 L 2.765625 -0.578125 C 2.765625 -0.128906 2.492188 0.09375 1.953125 0.09375 C 1.398438 0.09375 1.125 -0.128906 1.125 -0.578125 L 1.125 -10.28125 C 1.125 -10.613281 1.207031 -10.832031 1.375 -10.9375 C 1.550781 -11.050781 1.757812 -11.109375 2 -11.109375 L 6.078125 -11.109375 C 6.316406 -11.109375 6.566406 -11.054688 6.828125 -10.953125 C 7.085938 -10.859375 7.34375 -10.726562 7.59375 -10.5625 L 7.578125 -10.5625 C 7.816406 -10.382812 8 -10.15625 8.125 -9.875 C 8.257812 -9.59375 8.328125 -9.265625 8.328125 -8.890625 L 8.328125 -6.84375 C 8.328125 -6.09375 8.078125 -5.53125 7.578125 -5.15625 C 7.472656 -5.082031 7.359375 -5.007812 7.234375 -4.9375 C 7.117188 -4.875 7.003906 -4.8125 6.890625 -4.75 L 9.125 -1.046875 C 9.15625 -1.003906 9.179688 -0.941406 9.203125 -0.859375 C 9.234375 -0.785156 9.25 -0.726562 9.25 -0.6875 C 9.25 -0.457031 9.09375 -0.242188 8.78125 -0.046875 L 8.78125 -0.0625 C 8.5625 0.0703125 8.378906 0.140625 8.234375 0.140625 C 8.015625 0.140625 7.84375 0.03125 7.71875 -0.1875 L 7.734375 -0.171875 Z M 5.078125 -4.609375 "/></g></g></g><g fill="#00aeee" fill-opacity="1"><g transform="translate(238.821625, 292.650449)"><g><path d="M 6.421875 -6.390625 C 6.671875 -6.390625 6.925781 -6.335938 7.1875 -6.234375 C 7.445312 -6.140625 7.695312 -6.007812 7.9375 -5.84375 L 7.921875 -5.84375 C 8.160156 -5.675781 8.347656 -5.445312 8.484375 -5.15625 C 8.617188 -4.863281 8.6875 -4.53125 8.6875 -4.15625 L 8.6875 -2.234375 C 8.6875 -1.484375 8.429688 -0.921875 7.921875 -0.546875 C 7.679688 -0.367188 7.429688 -0.226562 7.171875 -0.125 C 6.921875 -0.03125 6.671875 0.015625 6.421875 0.015625 L 3.375 0.015625 C 3.132812 0.015625 2.882812 -0.03125 2.625 -0.125 C 2.363281 -0.226562 2.113281 -0.367188 1.875 -0.546875 C 1.375 -0.921875 1.125 -1.484375 1.125 -2.234375 L 1.125 -3.15625 C 1.125 -3.601562 1.398438 -3.828125 1.953125 -3.828125 C 2.503906 -3.828125 2.78125 -3.601562 2.78125 -3.15625 L 2.78125 -2.359375 C 2.78125 -2.109375 2.847656 -1.882812 2.984375 -1.6875 C 3.128906 -1.5 3.375 -1.40625 3.71875 -1.40625 L 6.078125 -1.40625 C 6.421875 -1.40625 6.660156 -1.5 6.796875 -1.6875 C 6.941406 -1.882812 7.015625 -2.109375 7.015625 -2.359375 L 7.015625 -4.046875 C 7.015625 -4.273438 6.941406 -4.488281 6.796875 -4.6875 C 6.660156 -4.894531 6.421875 -5 6.078125 -5 L 3.375 -5 C 2.882812 -5 2.382812 -5.175781 1.875 -5.53125 C 1.375 -5.925781 1.125 -6.488281 1.125 -7.21875 L 1.125 -8.890625 C 1.125 -9.265625 1.1875 -9.59375 1.3125 -9.875 C 1.445312 -10.15625 1.632812 -10.382812 1.875 -10.5625 L 1.859375 -10.5625 C 2.097656 -10.726562 2.347656 -10.859375 2.609375 -10.953125 C 2.878906 -11.054688 3.132812 -11.109375 3.375 -11.109375 L 6.421875 -11.109375 C 6.671875 -11.109375 6.925781 -11.054688 7.1875 -10.953125 C 7.445312 -10.859375 7.695312 -10.726562 7.9375 -10.5625 L 7.921875 -10.5625 C 8.160156 -10.382812 8.347656 -10.15625 8.484375 -9.875 C 8.617188 -9.59375 8.6875 -9.265625 8.6875 -8.890625 L 8.6875 -8.0625 C 8.6875 -7.625 8.40625 -7.40625 7.84375 -7.40625 C 7.289062 -7.40625 7.015625 -7.625 7.015625 -8.0625 L 7.015625 -8.765625 C 7.015625 -8.992188 6.941406 -9.207031 6.796875 -9.40625 C 6.660156 -9.601562 6.421875 -9.703125 6.078125 -9.703125 L 3.71875 -9.703125 C 3.375 -9.703125 3.128906 -9.601562 2.984375 -9.40625 C 2.847656 -9.207031 2.78125 -8.992188 2.78125 -8.765625 L 2.78125 -7.34375 C 2.78125 -7.09375 2.847656 -6.867188 2.984375 -6.671875 C 3.128906 -6.484375 3.375 -6.390625 3.71875 -6.390625 Z M 6.421875 -6.390625 "/></g></g></g></svg>