<svg xmlns="http://www.w3.org/2000/svg" xmlns:xlink="http://www.w3.org/1999/xlink" zoomAndPan="magnify" viewBox="0 0 375 374.999991" height="500" preserveAspectRatio="xMidYMid meet" version="1.0"><defs><g/><clipPath id="fbd7a99be7"><path d="M 70 160.550781 L 107 160.550781 L 107 214.550781 L 70 214.550781 Z M 70 160.550781 " clip-rule="nonzero"/></clipPath><clipPath id="306c0b182c"><path d="M 91 160.550781 L 128.457031 160.550781 L 128.457031 214.550781 L 91 214.550781 Z M 91 160.550781 " clip-rule="nonzero"/></clipPath></defs><g clip-path="url(#fbd7a99be7)"><path fill="#2957a3" d="M 102.824219 160.550781 L 106.441406 160.550781 L 106.441406 167.84375 L 102.824219 167.84375 L 102.824219 164.199219 L 73.65625 164.199219 L 73.65625 171.488281 L 88.355469 171.488281 L 88.355469 175.132812 L 70.039062 175.132812 L 70.039062 160.550781 Z M 106.441406 178.777344 L 106.441406 214.542969 L 102.824219 214.542969 L 102.824219 178.777344 Z M 106.441406 178.777344 " fill-opacity="1" fill-rule="evenodd"/></g><g clip-path="url(#306c0b182c)"><path fill="#00aeee" d="M 110.0625 160.550781 L 128.375 160.550781 L 128.375 175.132812 L 95.589844 175.132812 L 95.589844 214.542969 L 91.972656 214.542969 L 91.972656 171.488281 L 124.757812 171.488281 L 124.757812 164.199219 L 110.0625 164.199219 Z M 110.0625 160.550781 " fill-opacity="1" fill-rule="evenodd"/></g><g fill="#00aeee" fill-opacity="1"><g transform="translate(140.769048, 177.110417)"><g><path d="M 15.4375 0 L 14.625 -10.171875 L 14.53125 -10.171875 L 11.015625 -0.109375 L 8.671875 -0.109375 L 5.15625 -10.171875 L 5.0625 -10.171875 L 4.25 0 L 0.328125 0 L 1.875 -17.171875 L 6.03125 -17.171875 L 9.84375 -7.265625 L 13.65625 -17.171875 L 17.8125 -17.171875 L 19.359375 0 Z M 15.4375 0 "/></g></g></g><g fill="#00aeee" fill-opacity="1"><g transform="translate(160.451826, 177.110417)"><g><path d="M 1.96875 -1.3125 C 0.976562 -2.40625 0.484375 -3.742188 0.484375 -5.328125 C 0.484375 -6.910156 0.976562 -8.25 1.96875 -9.34375 C 2.96875 -10.4375 4.238281 -10.984375 5.78125 -10.984375 C 7.195312 -10.984375 8.363281 -10.539062 9.28125 -9.65625 L 9.28125 -10.671875 L 12.96875 -10.671875 L 12.96875 0 L 9.328125 0 L 9.328125 -1.203125 L 9.28125 -1.203125 C 8.363281 -0.191406 7.195312 0.3125 5.78125 0.3125 C 4.238281 0.3125 2.96875 -0.226562 1.96875 -1.3125 Z M 5.109375 -7.140625 C 4.628906 -6.671875 4.390625 -6.066406 4.390625 -5.328125 C 4.390625 -4.585938 4.617188 -3.984375 5.078125 -3.515625 C 5.535156 -3.054688 6.140625 -2.828125 6.890625 -2.828125 C 7.609375 -2.828125 8.195312 -3.0625 8.65625 -3.53125 C 9.125 -4.007812 9.359375 -4.609375 9.359375 -5.328125 C 9.359375 -6.066406 9.117188 -6.671875 8.640625 -7.140625 C 8.160156 -7.609375 7.578125 -7.84375 6.890625 -7.84375 C 6.179688 -7.84375 5.585938 -7.609375 5.109375 -7.140625 Z M 5.109375 -7.140625 "/></g></g></g><g fill="#00aeee" fill-opacity="1"><g transform="translate(174.662544, 177.110417)"><g><path d="M 1.25 0 L 1.25 -10.671875 L 4.9375 -10.671875 L 4.9375 -9.546875 L 4.96875 -9.546875 C 5.925781 -10.503906 6.945312 -10.984375 8.03125 -10.984375 C 8.5625 -10.984375 9.085938 -10.914062 9.609375 -10.78125 C 10.128906 -10.644531 10.628906 -10.429688 11.109375 -10.140625 C 11.585938 -9.847656 11.972656 -9.429688 12.265625 -8.890625 C 12.566406 -8.359375 12.71875 -7.738281 12.71875 -7.03125 L 12.71875 0 L 9.03125 0 L 9.03125 -6.03125 C 9.03125 -6.59375 8.851562 -7.078125 8.5 -7.484375 C 8.144531 -7.898438 7.6875 -8.109375 7.125 -8.109375 C 6.5625 -8.109375 6.054688 -7.894531 5.609375 -7.46875 C 5.160156 -7.039062 4.9375 -6.5625 4.9375 -6.03125 L 4.9375 0 Z M 1.25 0 "/></g></g></g><g fill="#00aeee" fill-opacity="1"><g transform="translate(188.415516, 177.110417)"><g><path d="M 1.96875 -1.3125 C 0.976562 -2.40625 0.484375 -3.742188 0.484375 -5.328125 C 0.484375 -6.910156 0.976562 -8.25 1.96875 -9.34375 C 2.96875 -10.4375 4.238281 -10.984375 5.78125 -10.984375 C 7.195312 -10.984375 8.363281 -10.539062 9.28125 -9.65625 L 9.28125 -10.671875 L 12.96875 -10.671875 L 12.96875 0 L 9.328125 0 L 9.328125 -1.203125 L 9.28125 -1.203125 C 8.363281 -0.191406 7.195312 0.3125 5.78125 0.3125 C 4.238281 0.3125 2.96875 -0.226562 1.96875 -1.3125 Z M 5.109375 -7.140625 C 4.628906 -6.671875 4.390625 -6.066406 4.390625 -5.328125 C 4.390625 -4.585938 4.617188 -3.984375 5.078125 -3.515625 C 5.535156 -3.054688 6.140625 -2.828125 6.890625 -2.828125 C 7.609375 -2.828125 8.195312 -3.0625 8.65625 -3.53125 C 9.125 -4.007812 9.359375 -4.609375 9.359375 -5.328125 C 9.359375 -6.066406 9.117188 -6.671875 8.640625 -7.140625 C 8.160156 -7.609375 7.578125 -7.84375 6.890625 -7.84375 C 6.179688 -7.84375 5.585938 -7.609375 5.109375 -7.140625 Z M 5.109375 -7.140625 "/></g></g></g><g fill="#00aeee" fill-opacity="1"><g transform="translate(202.626234, 177.110417)"><g><path d="M 0.765625 2.625 L 3.78125 1.140625 C 4.34375 2.054688 5.3125 2.515625 6.6875 2.515625 C 7.320312 2.515625 7.910156 2.3125 8.453125 1.90625 C 9.003906 1.5 9.28125 0.867188 9.28125 0.015625 L 9.28125 -0.765625 C 8.625 -0.046875 7.457031 0.3125 5.78125 0.3125 C 4.238281 0.3125 2.96875 -0.226562 1.96875 -1.3125 C 0.976562 -2.40625 0.484375 -3.742188 0.484375 -5.328125 C 0.484375 -6.910156 0.976562 -8.25 1.96875 -9.34375 C 2.96875 -10.4375 4.238281 -10.984375 5.78125 -10.984375 C 7.15625 -10.984375 8.300781 -10.5625 9.21875 -9.71875 L 9.28125 -9.71875 L 9.28125 -10.671875 L 12.96875 -10.671875 L 12.96875 0.296875 C 12.96875 2.023438 12.390625 3.359375 11.234375 4.296875 C 10.085938 5.242188 8.570312 5.71875 6.6875 5.71875 C 3.632812 5.71875 1.660156 4.6875 0.765625 2.625 Z M 5.109375 -7.140625 C 4.628906 -6.671875 4.390625 -6.066406 4.390625 -5.328125 C 4.390625 -4.585938 4.617188 -3.984375 5.078125 -3.515625 C 5.535156 -3.054688 6.140625 -2.828125 6.890625 -2.828125 C 7.609375 -2.828125 8.195312 -3.0625 8.65625 -3.53125 C 9.125 -4.007812 9.359375 -4.609375 9.359375 -5.328125 C 9.359375 -6.066406 9.117188 -6.671875 8.640625 -7.140625 C 8.160156 -7.609375 7.578125 -7.84375 6.890625 -7.84375 C 6.179688 -7.84375 5.585938 -7.609375 5.109375 -7.140625 Z M 5.109375 -7.140625 "/></g></g></g><g fill="#00aeee" fill-opacity="1"><g transform="translate(216.836951, 177.110417)"><g><path d="M 12.046875 -4.828125 L 4.3125 -4.828125 C 4.3125 -4.078125 4.550781 -3.519531 5.03125 -3.15625 C 5.519531 -2.800781 6.050781 -2.625 6.625 -2.625 C 7.21875 -2.625 7.6875 -2.703125 8.03125 -2.859375 C 8.375 -3.015625 8.769531 -3.332031 9.21875 -3.8125 L 11.890625 -2.484375 C 10.773438 -0.617188 8.925781 0.3125 6.34375 0.3125 C 4.738281 0.3125 3.359375 -0.238281 2.203125 -1.34375 C 1.054688 -2.445312 0.484375 -3.773438 0.484375 -5.328125 C 0.484375 -6.878906 1.054688 -8.207031 2.203125 -9.3125 C 3.359375 -10.425781 4.738281 -10.984375 6.34375 -10.984375 C 8.039062 -10.984375 9.421875 -10.492188 10.484375 -9.515625 C 11.546875 -8.535156 12.078125 -7.140625 12.078125 -5.328125 C 12.078125 -5.078125 12.066406 -4.910156 12.046875 -4.828125 Z M 4.40625 -6.875 L 8.46875 -6.875 C 8.382812 -7.425781 8.164062 -7.847656 7.8125 -8.140625 C 7.457031 -8.441406 7.003906 -8.59375 6.453125 -8.59375 C 5.835938 -8.59375 5.347656 -8.429688 4.984375 -8.109375 C 4.628906 -7.796875 4.4375 -7.382812 4.40625 -6.875 Z M 4.40625 -6.875 "/></g></g></g><g fill="#00aeee" fill-opacity="1"><g transform="translate(229.383164, 177.110417)"><g><path d="M 1.25 0 L 1.25 -10.671875 L 4.9375 -10.671875 L 4.9375 -9.140625 L 4.96875 -9.140625 C 5 -9.191406 5.046875 -9.257812 5.109375 -9.34375 C 5.171875 -9.425781 5.304688 -9.570312 5.515625 -9.78125 C 5.722656 -9.988281 5.941406 -10.175781 6.171875 -10.34375 C 6.410156 -10.507812 6.71875 -10.65625 7.09375 -10.78125 C 7.46875 -10.914062 7.847656 -10.984375 8.234375 -10.984375 C 8.640625 -10.984375 9.035156 -10.925781 9.421875 -10.8125 C 9.816406 -10.707031 10.101562 -10.597656 10.28125 -10.484375 L 10.578125 -10.328125 L 9.03125 -7.203125 C 8.570312 -7.585938 7.9375 -7.78125 7.125 -7.78125 C 6.675781 -7.78125 6.289062 -7.679688 5.96875 -7.484375 C 5.65625 -7.296875 5.429688 -7.0625 5.296875 -6.78125 C 5.160156 -6.507812 5.066406 -6.273438 5.015625 -6.078125 C 4.960938 -5.878906 4.9375 -5.726562 4.9375 -5.625 L 4.9375 0 Z M 1.25 0 "/></g></g></g><g fill="#00aeee" fill-opacity="1"><g transform="translate(239.744712, 177.110417)"><g><path d="M 5.890625 -10.984375 C 6.503906 -10.984375 7.109375 -10.914062 7.703125 -10.78125 C 8.296875 -10.644531 8.738281 -10.503906 9.03125 -10.359375 L 9.46875 -10.15625 L 8.265625 -7.75 C 7.429688 -8.1875 6.640625 -8.40625 5.890625 -8.40625 C 5.472656 -8.40625 5.175781 -8.359375 5 -8.265625 C 4.832031 -8.179688 4.75 -8.015625 4.75 -7.765625 C 4.75 -7.710938 4.753906 -7.65625 4.765625 -7.59375 C 4.773438 -7.539062 4.800781 -7.488281 4.84375 -7.4375 C 4.882812 -7.394531 4.921875 -7.351562 4.953125 -7.3125 C 4.992188 -7.28125 5.054688 -7.242188 5.140625 -7.203125 C 5.222656 -7.160156 5.285156 -7.128906 5.328125 -7.109375 C 5.378906 -7.085938 5.460938 -7.054688 5.578125 -7.015625 C 5.691406 -6.972656 5.773438 -6.941406 5.828125 -6.921875 C 5.878906 -6.898438 5.972656 -6.867188 6.109375 -6.828125 C 6.242188 -6.785156 6.34375 -6.757812 6.40625 -6.75 C 6.84375 -6.625 7.21875 -6.484375 7.53125 -6.328125 C 7.851562 -6.171875 8.191406 -5.960938 8.546875 -5.703125 C 8.898438 -5.441406 9.171875 -5.109375 9.359375 -4.703125 C 9.554688 -4.296875 9.65625 -3.835938 9.65625 -3.328125 C 9.65625 -0.898438 7.96875 0.3125 4.59375 0.3125 C 3.832031 0.3125 3.109375 0.195312 2.421875 -0.03125 C 1.734375 -0.269531 1.238281 -0.507812 0.9375 -0.75 L 0.484375 -1.125 L 1.984375 -3.640625 C 2.085938 -3.546875 2.226562 -3.429688 2.40625 -3.296875 C 2.59375 -3.160156 2.921875 -2.976562 3.390625 -2.75 C 3.859375 -2.53125 4.269531 -2.421875 4.625 -2.421875 C 5.382812 -2.421875 5.765625 -2.675781 5.765625 -3.1875 C 5.765625 -3.414062 5.664062 -3.597656 5.46875 -3.734375 C 5.28125 -3.867188 4.953125 -4.019531 4.484375 -4.1875 C 4.015625 -4.351562 3.648438 -4.503906 3.390625 -4.640625 C 2.722656 -4.984375 2.195312 -5.375 1.8125 -5.8125 C 1.425781 -6.25 1.234375 -6.832031 1.234375 -7.5625 C 1.234375 -8.632812 1.648438 -9.472656 2.484375 -10.078125 C 3.328125 -10.679688 4.460938 -10.984375 5.890625 -10.984375 Z M 5.890625 -10.984375 "/></g></g></g><g fill="#2957a3" fill-opacity="1"><g transform="translate(140.769048, 207.053445)"><g><path d="M 11.265625 -3.828125 C 11.910156 -3.828125 12.535156 -3.925781 13.140625 -4.125 C 13.753906 -4.320312 14.203125 -4.507812 14.484375 -4.6875 L 14.90625 -4.984375 L 16.71875 -1.375 C 16.65625 -1.332031 16.570312 -1.269531 16.46875 -1.1875 C 16.363281 -1.113281 16.117188 -0.972656 15.734375 -0.765625 C 15.347656 -0.566406 14.9375 -0.390625 14.5 -0.234375 C 14.070312 -0.0859375 13.503906 0.0390625 12.796875 0.15625 C 12.085938 0.28125 11.359375 0.34375 10.609375 0.34375 C 8.878906 0.34375 7.238281 -0.0820312 5.6875 -0.9375 C 4.132812 -1.789062 2.882812 -2.957031 1.9375 -4.4375 C 0.988281 -5.925781 0.515625 -7.535156 0.515625 -9.265625 C 0.515625 -10.578125 0.789062 -11.832031 1.34375 -13.03125 C 1.90625 -14.238281 2.648438 -15.269531 3.578125 -16.125 C 4.503906 -16.988281 5.582031 -17.675781 6.8125 -18.1875 C 8.039062 -18.695312 9.304688 -18.953125 10.609375 -18.953125 C 11.804688 -18.953125 12.910156 -18.804688 13.921875 -18.515625 C 14.941406 -18.234375 15.664062 -17.953125 16.09375 -17.671875 L 16.71875 -17.234375 L 14.90625 -13.625 C 14.800781 -13.71875 14.644531 -13.828125 14.4375 -13.953125 C 14.226562 -14.078125 13.804688 -14.242188 13.171875 -14.453125 C 12.546875 -14.671875 11.910156 -14.78125 11.265625 -14.78125 C 10.234375 -14.78125 9.3125 -14.613281 8.5 -14.28125 C 7.6875 -13.945312 7.039062 -13.507812 6.5625 -12.96875 C 6.09375 -12.425781 5.734375 -11.84375 5.484375 -11.21875 C 5.242188 -10.59375 5.125 -9.957031 5.125 -9.3125 C 5.125 -7.90625 5.648438 -6.640625 6.703125 -5.515625 C 7.765625 -4.390625 9.285156 -3.828125 11.265625 -3.828125 Z M 11.265625 -3.828125 "/></g></g></g><g fill="#2957a3" fill-opacity="1"><g transform="translate(157.754523, 207.053445)"><g><path d="M 2.4375 -1.375 C 1.15625 -2.519531 0.515625 -3.988281 0.515625 -5.78125 C 0.515625 -7.570312 1.179688 -9.039062 2.515625 -10.1875 C 3.859375 -11.332031 5.515625 -11.90625 7.484375 -11.90625 C 9.429688 -11.90625 11.066406 -11.328125 12.390625 -10.171875 C 13.722656 -9.015625 14.390625 -7.546875 14.390625 -5.765625 C 14.390625 -3.992188 13.738281 -2.53125 12.4375 -1.375 C 11.132812 -0.226562 9.484375 0.34375 7.484375 0.34375 C 5.410156 0.34375 3.726562 -0.226562 2.4375 -1.375 Z M 5.53125 -7.734375 C 5.019531 -7.222656 4.765625 -6.566406 4.765625 -5.765625 C 4.765625 -4.972656 5.007812 -4.320312 5.5 -3.8125 C 6 -3.3125 6.65625 -3.0625 7.46875 -3.0625 C 8.25 -3.0625 8.890625 -3.316406 9.390625 -3.828125 C 9.898438 -4.347656 10.15625 -5 10.15625 -5.78125 C 10.15625 -6.570312 9.894531 -7.222656 9.375 -7.734375 C 8.851562 -8.242188 8.21875 -8.5 7.46875 -8.5 C 6.695312 -8.5 6.050781 -8.242188 5.53125 -7.734375 Z M 5.53125 -7.734375 "/></g></g></g><g fill="#2957a3" fill-opacity="1"><g transform="translate(172.66475, 207.053445)"><g><path d="M 1.359375 0 L 1.359375 -11.578125 L 5.34375 -11.578125 L 5.34375 -10.359375 L 5.390625 -10.359375 C 6.429688 -11.390625 7.535156 -11.90625 8.703125 -11.90625 C 9.273438 -11.90625 9.84375 -11.832031 10.40625 -11.6875 C 10.976562 -11.539062 11.519531 -11.304688 12.03125 -10.984375 C 12.550781 -10.671875 12.972656 -10.222656 13.296875 -9.640625 C 13.617188 -9.066406 13.78125 -8.394531 13.78125 -7.625 L 13.78125 0 L 9.796875 0 L 9.796875 -6.546875 C 9.796875 -7.148438 9.601562 -7.675781 9.21875 -8.125 C 8.832031 -8.570312 8.332031 -8.796875 7.71875 -8.796875 C 7.113281 -8.796875 6.566406 -8.5625 6.078125 -8.09375 C 5.585938 -7.632812 5.34375 -7.117188 5.34375 -6.546875 L 5.34375 0 Z M 1.359375 0 "/></g></g></g><g fill="#2957a3" fill-opacity="1"><g transform="translate(187.574977, 207.053445)"><g><path d="M 6.390625 -11.90625 C 7.046875 -11.90625 7.695312 -11.832031 8.34375 -11.6875 C 8.988281 -11.539062 9.472656 -11.390625 9.796875 -11.234375 L 10.265625 -11.015625 L 8.953125 -8.390625 C 8.054688 -8.867188 7.203125 -9.109375 6.390625 -9.109375 C 5.929688 -9.109375 5.609375 -9.0625 5.421875 -8.96875 C 5.234375 -8.875 5.140625 -8.691406 5.140625 -8.421875 C 5.140625 -8.359375 5.144531 -8.296875 5.15625 -8.234375 C 5.175781 -8.171875 5.207031 -8.113281 5.25 -8.0625 C 5.300781 -8.007812 5.34375 -7.960938 5.375 -7.921875 C 5.414062 -7.890625 5.476562 -7.847656 5.5625 -7.796875 C 5.65625 -7.753906 5.726562 -7.722656 5.78125 -7.703125 C 5.832031 -7.679688 5.921875 -7.644531 6.046875 -7.59375 C 6.171875 -7.550781 6.257812 -7.519531 6.3125 -7.5 C 6.375 -7.476562 6.476562 -7.441406 6.625 -7.390625 C 6.769531 -7.347656 6.878906 -7.320312 6.953125 -7.3125 C 7.421875 -7.175781 7.828125 -7.023438 8.171875 -6.859375 C 8.515625 -6.691406 8.878906 -6.460938 9.265625 -6.171875 C 9.648438 -5.890625 9.945312 -5.53125 10.15625 -5.09375 C 10.363281 -4.65625 10.46875 -4.160156 10.46875 -3.609375 C 10.46875 -0.972656 8.640625 0.34375 4.984375 0.34375 C 4.160156 0.34375 3.375 0.21875 2.625 -0.03125 C 1.882812 -0.289062 1.347656 -0.550781 1.015625 -0.8125 L 0.515625 -1.21875 L 2.140625 -3.953125 C 2.265625 -3.847656 2.421875 -3.722656 2.609375 -3.578125 C 2.804688 -3.429688 3.160156 -3.234375 3.671875 -2.984375 C 4.179688 -2.742188 4.628906 -2.625 5.015625 -2.625 C 5.835938 -2.625 6.25 -2.898438 6.25 -3.453125 C 6.25 -3.703125 6.144531 -3.898438 5.9375 -4.046875 C 5.726562 -4.191406 5.367188 -4.351562 4.859375 -4.53125 C 4.359375 -4.71875 3.960938 -4.882812 3.671875 -5.03125 C 2.953125 -5.40625 2.378906 -5.828125 1.953125 -6.296875 C 1.535156 -6.773438 1.328125 -7.40625 1.328125 -8.1875 C 1.328125 -9.363281 1.78125 -10.273438 2.6875 -10.921875 C 3.601562 -11.578125 4.835938 -11.90625 6.390625 -11.90625 Z M 6.390625 -11.90625 "/></g></g></g><g fill="#2957a3" fill-opacity="1"><g transform="translate(198.673049, 207.053445)"><g><path d="M 5.125 -11.578125 L 5.125 -6.0625 C 5.125 -4.925781 5.296875 -4.113281 5.640625 -3.625 C 5.984375 -3.144531 6.566406 -2.90625 7.390625 -2.90625 C 8.222656 -2.90625 8.8125 -3.144531 9.15625 -3.625 C 9.5 -4.113281 9.671875 -4.925781 9.671875 -6.0625 L 9.671875 -11.578125 L 13.671875 -11.578125 L 13.671875 -5.09375 C 13.671875 -3.175781 13.171875 -1.789062 12.171875 -0.9375 C 11.171875 -0.0820312 9.578125 0.34375 7.390625 0.34375 C 5.210938 0.34375 3.625 -0.0820312 2.625 -0.9375 C 1.625 -1.789062 1.125 -3.175781 1.125 -5.09375 L 1.125 -11.578125 Z M 5.125 -11.578125 "/></g></g></g><g fill="#2957a3" fill-opacity="1"><g transform="translate(213.470483, 207.053445)"><g><path d="M 1.359375 0 L 1.359375 -19.40625 L 5.34375 -19.40625 L 5.34375 0 Z M 1.359375 0 "/></g></g></g><g fill="#2957a3" fill-opacity="1"><g transform="translate(220.16993, 207.053445)"><g><path d="M 2.03125 -11.578125 L 2.03125 -15.890625 L 6.03125 -15.890625 L 6.03125 -11.578125 L 8.46875 -11.578125 L 8.46875 -8.53125 L 6.03125 -8.53125 L 6.03125 -4.84375 C 6.03125 -3.78125 6.328125 -3.25 6.921875 -3.25 C 7.078125 -3.25 7.238281 -3.273438 7.40625 -3.328125 C 7.570312 -3.390625 7.695312 -3.453125 7.78125 -3.515625 L 7.921875 -3.609375 L 8.90625 -0.390625 C 8.050781 0.0976562 7.078125 0.34375 5.984375 0.34375 C 5.222656 0.34375 4.570312 0.210938 4.03125 -0.046875 C 3.488281 -0.316406 3.078125 -0.671875 2.796875 -1.109375 C 2.523438 -1.554688 2.328125 -2.023438 2.203125 -2.515625 C 2.085938 -3.003906 2.03125 -3.523438 2.03125 -4.078125 L 2.03125 -8.53125 L 0.359375 -8.53125 L 0.359375 -11.578125 Z M 2.03125 -11.578125 "/></g></g></g><g fill="#2957a3" fill-opacity="1"><g transform="translate(229.079974, 207.053445)"><g><path d="M 2.4375 -1.375 C 1.15625 -2.519531 0.515625 -3.988281 0.515625 -5.78125 C 0.515625 -7.570312 1.179688 -9.039062 2.515625 -10.1875 C 3.859375 -11.332031 5.515625 -11.90625 7.484375 -11.90625 C 9.429688 -11.90625 11.066406 -11.328125 12.390625 -10.171875 C 13.722656 -9.015625 14.390625 -7.546875 14.390625 -5.765625 C 14.390625 -3.992188 13.738281 -2.53125 12.4375 -1.375 C 11.132812 -0.226562 9.484375 0.34375 7.484375 0.34375 C 5.410156 0.34375 3.726562 -0.226562 2.4375 -1.375 Z M 5.53125 -7.734375 C 5.019531 -7.222656 4.765625 -6.566406 4.765625 -5.765625 C 4.765625 -4.972656 5.007812 -4.320312 5.5 -3.8125 C 6 -3.3125 6.65625 -3.0625 7.46875 -3.0625 C 8.25 -3.0625 8.890625 -3.316406 9.390625 -3.828125 C 9.898438 -4.347656 10.15625 -5 10.15625 -5.78125 C 10.15625 -6.570312 9.894531 -7.222656 9.375 -7.734375 C 8.851562 -8.242188 8.21875 -8.5 7.46875 -8.5 C 6.695312 -8.5 6.050781 -8.242188 5.53125 -7.734375 Z M 5.53125 -7.734375 "/></g></g></g><g fill="#2957a3" fill-opacity="1"><g transform="translate(243.990201, 207.053445)"><g><path d="M 1.359375 0 L 1.359375 -11.578125 L 5.34375 -11.578125 L 5.34375 -9.90625 L 5.390625 -9.90625 C 5.421875 -9.96875 5.46875 -10.039062 5.53125 -10.125 C 5.601562 -10.21875 5.75 -10.375 5.96875 -10.59375 C 6.195312 -10.820312 6.4375 -11.023438 6.6875 -11.203125 C 6.945312 -11.390625 7.28125 -11.550781 7.6875 -11.6875 C 8.09375 -11.832031 8.507812 -11.90625 8.9375 -11.90625 C 9.375 -11.90625 9.800781 -11.84375 10.21875 -11.71875 C 10.644531 -11.601562 10.953125 -11.488281 11.140625 -11.375 L 11.46875 -11.1875 L 9.796875 -7.8125 C 9.296875 -8.226562 8.601562 -8.4375 7.71875 -8.4375 C 7.238281 -8.4375 6.820312 -8.332031 6.46875 -8.125 C 6.125 -7.914062 5.878906 -7.660156 5.734375 -7.359375 C 5.597656 -7.054688 5.5 -6.796875 5.4375 -6.578125 C 5.375 -6.367188 5.34375 -6.207031 5.34375 -6.09375 L 5.34375 0 Z M 1.359375 0 "/></g></g></g><g fill="#2957a3" fill-opacity="1"><g transform="translate(255.223622, 207.053445)"><g><path d="M 1.734375 -18.03125 C 2.203125 -18.5 2.757812 -18.734375 3.40625 -18.734375 C 4.050781 -18.734375 4.609375 -18.5 5.078125 -18.03125 C 5.546875 -17.5625 5.78125 -17.003906 5.78125 -16.359375 C 5.78125 -15.710938 5.546875 -15.15625 5.078125 -14.6875 C 4.609375 -14.21875 4.050781 -13.984375 3.40625 -13.984375 C 2.757812 -13.984375 2.203125 -14.21875 1.734375 -14.6875 C 1.265625 -15.15625 1.03125 -15.710938 1.03125 -16.359375 C 1.03125 -17.003906 1.265625 -17.5625 1.734375 -18.03125 Z M 1.359375 -11.578125 L 1.359375 0 L 5.34375 0 L 5.34375 -11.578125 Z M 1.359375 -11.578125 "/></g></g></g><g fill="#2957a3" fill-opacity="1"><g transform="translate(262.035862, 207.053445)"><g><path d="M 2.140625 -1.421875 C 1.054688 -2.609375 0.515625 -4.054688 0.515625 -5.765625 C 0.515625 -7.484375 1.054688 -8.9375 2.140625 -10.125 C 3.222656 -11.3125 4.597656 -11.90625 6.265625 -11.90625 C 7.804688 -11.90625 9.070312 -11.425781 10.0625 -10.46875 L 10.0625 -11.578125 L 14.0625 -11.578125 L 14.0625 0 L 10.109375 0 L 10.109375 -1.3125 L 10.0625 -1.3125 C 9.070312 -0.207031 7.804688 0.34375 6.265625 0.34375 C 4.597656 0.34375 3.222656 -0.242188 2.140625 -1.421875 Z M 5.53125 -7.734375 C 5.019531 -7.222656 4.765625 -6.566406 4.765625 -5.765625 C 4.765625 -4.972656 5.007812 -4.320312 5.5 -3.8125 C 6 -3.3125 6.65625 -3.0625 7.46875 -3.0625 C 8.25 -3.0625 8.890625 -3.316406 9.390625 -3.828125 C 9.898438 -4.347656 10.15625 -5 10.15625 -5.78125 C 10.15625 -6.570312 9.894531 -7.222656 9.375 -7.734375 C 8.851562 -8.242188 8.21875 -8.5 7.46875 -8.5 C 6.695312 -8.5 6.050781 -8.242188 5.53125 -7.734375 Z M 5.53125 -7.734375 "/></g></g></g></svg>